<mxfile host="app.diagrams.net" modified="2023-08-18T07:00:20.264Z" agent="Mozilla/5.0 (Macintosh; Intel Mac OS X 10_15_7) AppleWebKit/537.36 (KHTML, like Gecko) Chrome/115.0.0.0 Safari/537.36 Edg/115.0.1901.203" etag="B4wf6IzZY1tfaniUk-yH" version="21.3.7" type="github">
  <diagram name="Page-1" id="8ycXzk-0WKNFsZ_IVYjc">
    <mxGraphModel dx="2954" dy="1102" grid="1" gridSize="10" guides="1" tooltips="1" connect="1" arrows="1" fold="1" page="1" pageScale="1" pageWidth="827" pageHeight="1169" math="0" shadow="0">
      <root>
        <mxCell id="0" />
        <mxCell id="1" parent="0" />
        <mxCell id="rmjXI2Q3mE38yhYSVIC6-80" value="" style="rounded=1;whiteSpace=wrap;html=1;" vertex="1" parent="1">
          <mxGeometry x="1190" y="114" width="200" height="116" as="geometry" />
        </mxCell>
        <mxCell id="rmjXI2Q3mE38yhYSVIC6-37" value="" style="rounded=1;whiteSpace=wrap;html=1;" vertex="1" parent="1">
          <mxGeometry x="970" y="114" width="200" height="116" as="geometry" />
        </mxCell>
        <mxCell id="rmjXI2Q3mE38yhYSVIC6-10" value="" style="rounded=0;whiteSpace=wrap;html=1;" vertex="1" parent="1">
          <mxGeometry x="130" y="260" width="1240" height="590" as="geometry" />
        </mxCell>
        <mxCell id="rmjXI2Q3mE38yhYSVIC6-21" style="edgeStyle=orthogonalEdgeStyle;rounded=0;orthogonalLoop=1;jettySize=auto;html=1;exitX=0.5;exitY=1;exitDx=0;exitDy=0;entryX=0.5;entryY=0;entryDx=0;entryDy=0;" edge="1" parent="1" source="rmjXI2Q3mE38yhYSVIC6-8" target="rmjXI2Q3mE38yhYSVIC6-20">
          <mxGeometry relative="1" as="geometry" />
        </mxCell>
        <mxCell id="rmjXI2Q3mE38yhYSVIC6-8" value="Order Response" style="rounded=1;whiteSpace=wrap;html=1;verticalAlign=bottom;" vertex="1" parent="1">
          <mxGeometry x="560" y="110" width="310" height="120" as="geometry" />
        </mxCell>
        <mxCell id="rmjXI2Q3mE38yhYSVIC6-17" style="edgeStyle=orthogonalEdgeStyle;rounded=0;orthogonalLoop=1;jettySize=auto;html=1;exitX=0.5;exitY=1;exitDx=0;exitDy=0;entryX=0.5;entryY=0;entryDx=0;entryDy=0;" edge="1" parent="1" source="rmjXI2Q3mE38yhYSVIC6-7" target="rmjXI2Q3mE38yhYSVIC6-16">
          <mxGeometry relative="1" as="geometry" />
        </mxCell>
        <mxCell id="rmjXI2Q3mE38yhYSVIC6-7" value="Order Events&amp;nbsp;" style="rounded=1;whiteSpace=wrap;html=1;verticalAlign=bottom;" vertex="1" parent="1">
          <mxGeometry x="134" y="110" width="300" height="130" as="geometry" />
        </mxCell>
        <mxCell id="rmjXI2Q3mE38yhYSVIC6-1" value="BP Topcic -1&amp;nbsp;" style="sketch=0;points=[[0,0,0],[0.25,0,0],[0.5,0,0],[0.75,0,0],[1,0,0],[0,1,0],[0.25,1,0],[0.5,1,0],[0.75,1,0],[1,1,0],[0,0.25,0],[0,0.5,0],[0,0.75,0],[1,0.25,0],[1,0.5,0],[1,0.75,0]];outlineConnect=0;fontColor=#232F3E;gradientColor=#945DF2;gradientDirection=north;fillColor=#5A30B5;strokeColor=#ffffff;dashed=0;verticalLabelPosition=bottom;verticalAlign=top;align=center;html=1;fontSize=12;fontStyle=0;aspect=fixed;shape=mxgraph.aws4.resourceIcon;resIcon=mxgraph.aws4.managed_streaming_for_kafka;" vertex="1" parent="1">
          <mxGeometry x="160" y="130" width="50" height="50" as="geometry" />
        </mxCell>
        <mxCell id="rmjXI2Q3mE38yhYSVIC6-2" value="BP Topic -2&amp;nbsp;" style="sketch=0;points=[[0,0,0],[0.25,0,0],[0.5,0,0],[0.75,0,0],[1,0,0],[0,1,0],[0.25,1,0],[0.5,1,0],[0.75,1,0],[1,1,0],[0,0.25,0],[0,0.5,0],[0,0.75,0],[1,0.25,0],[1,0.5,0],[1,0.75,0]];outlineConnect=0;fontColor=#232F3E;gradientColor=#945DF2;gradientDirection=north;fillColor=#5A30B5;strokeColor=#ffffff;dashed=0;verticalLabelPosition=bottom;verticalAlign=top;align=center;html=1;fontSize=12;fontStyle=0;aspect=fixed;shape=mxgraph.aws4.resourceIcon;resIcon=mxgraph.aws4.managed_streaming_for_kafka;" vertex="1" parent="1">
          <mxGeometry x="260" y="130" width="48" height="48" as="geometry" />
        </mxCell>
        <mxCell id="rmjXI2Q3mE38yhYSVIC6-3" value="BP2 - Respose" style="sketch=0;points=[[0,0,0],[0.25,0,0],[0.5,0,0],[0.75,0,0],[1,0,0],[0,1,0],[0.25,1,0],[0.5,1,0],[0.75,1,0],[1,1,0],[0,0.25,0],[0,0.5,0],[0,0.75,0],[1,0.25,0],[1,0.5,0],[1,0.75,0]];outlineConnect=0;fontColor=#232F3E;gradientColor=#945DF2;gradientDirection=north;fillColor=#5A30B5;strokeColor=#ffffff;dashed=0;verticalLabelPosition=bottom;verticalAlign=top;align=center;html=1;fontSize=12;fontStyle=0;aspect=fixed;shape=mxgraph.aws4.resourceIcon;resIcon=mxgraph.aws4.managed_streaming_for_kafka;" vertex="1" parent="1">
          <mxGeometry x="690" y="120" width="50" height="50" as="geometry" />
        </mxCell>
        <mxCell id="rmjXI2Q3mE38yhYSVIC6-4" value="BP3 - Response" style="sketch=0;points=[[0,0,0],[0.25,0,0],[0.5,0,0],[0.75,0,0],[1,0,0],[0,1,0],[0.25,1,0],[0.5,1,0],[0.75,1,0],[1,1,0],[0,0.25,0],[0,0.5,0],[0,0.75,0],[1,0.25,0],[1,0.5,0],[1,0.75,0]];outlineConnect=0;fontColor=#232F3E;gradientColor=#945DF2;gradientDirection=north;fillColor=#5A30B5;strokeColor=#ffffff;dashed=0;verticalLabelPosition=bottom;verticalAlign=top;align=center;html=1;fontSize=12;fontStyle=0;aspect=fixed;shape=mxgraph.aws4.resourceIcon;resIcon=mxgraph.aws4.managed_streaming_for_kafka;" vertex="1" parent="1">
          <mxGeometry x="790" y="120" width="48" height="48" as="geometry" />
        </mxCell>
        <mxCell id="rmjXI2Q3mE38yhYSVIC6-5" value="BP Topic -3" style="sketch=0;points=[[0,0,0],[0.25,0,0],[0.5,0,0],[0.75,0,0],[1,0,0],[0,1,0],[0.25,1,0],[0.5,1,0],[0.75,1,0],[1,1,0],[0,0.25,0],[0,0.5,0],[0,0.75,0],[1,0.25,0],[1,0.5,0],[1,0.75,0]];outlineConnect=0;fontColor=#232F3E;gradientColor=#945DF2;gradientDirection=north;fillColor=#5A30B5;strokeColor=#ffffff;dashed=0;verticalLabelPosition=bottom;verticalAlign=top;align=center;html=1;fontSize=12;fontStyle=0;aspect=fixed;shape=mxgraph.aws4.resourceIcon;resIcon=mxgraph.aws4.managed_streaming_for_kafka;" vertex="1" parent="1">
          <mxGeometry x="350" y="128" width="50" height="50" as="geometry" />
        </mxCell>
        <mxCell id="rmjXI2Q3mE38yhYSVIC6-6" value="BP1 - Response&amp;nbsp;" style="sketch=0;points=[[0,0,0],[0.25,0,0],[0.5,0,0],[0.75,0,0],[1,0,0],[0,1,0],[0.25,1,0],[0.5,1,0],[0.75,1,0],[1,1,0],[0,0.25,0],[0,0.5,0],[0,0.75,0],[1,0.25,0],[1,0.5,0],[1,0.75,0]];outlineConnect=0;fontColor=#232F3E;gradientColor=#945DF2;gradientDirection=north;fillColor=#5A30B5;strokeColor=#ffffff;dashed=0;verticalLabelPosition=bottom;verticalAlign=top;align=center;html=1;fontSize=12;fontStyle=0;aspect=fixed;shape=mxgraph.aws4.resourceIcon;resIcon=mxgraph.aws4.managed_streaming_for_kafka;" vertex="1" parent="1">
          <mxGeometry x="600" y="122" width="48" height="48" as="geometry" />
        </mxCell>
        <mxCell id="rmjXI2Q3mE38yhYSVIC6-9" value="" style="shape=image;verticalLabelPosition=bottom;verticalAlign=top;imageAspect=0;image=https://wints.github.io/flink-web//img/navbar-brand-logo.png" vertex="1" parent="1">
          <mxGeometry x="130" y="810" width="80" height="40" as="geometry" />
        </mxCell>
        <mxCell id="rmjXI2Q3mE38yhYSVIC6-19" value="Order Persistence" style="edgeStyle=orthogonalEdgeStyle;rounded=0;orthogonalLoop=1;jettySize=auto;html=1;" edge="1" parent="1" source="rmjXI2Q3mE38yhYSVIC6-16" target="rmjXI2Q3mE38yhYSVIC6-18">
          <mxGeometry x="0.0323" y="6" relative="1" as="geometry">
            <mxPoint as="offset" />
          </mxGeometry>
        </mxCell>
        <mxCell id="rmjXI2Q3mE38yhYSVIC6-16" value="Raw Ingestion" style="shape=process;whiteSpace=wrap;html=1;backgroundOutline=1;fillColor=#d5e8d4;strokeColor=#82b366;" vertex="1" parent="1">
          <mxGeometry x="280" y="312" width="120" height="60" as="geometry" />
        </mxCell>
        <mxCell id="rmjXI2Q3mE38yhYSVIC6-26" value="Order Lookup" style="edgeStyle=orthogonalEdgeStyle;rounded=0;orthogonalLoop=1;jettySize=auto;html=1;entryX=0;entryY=0.5;entryDx=0;entryDy=0;exitX=0.571;exitY=1;exitDx=0;exitDy=0;exitPerimeter=0;startArrow=classic;startFill=1;endArrow=none;endFill=0;" edge="1" parent="1" source="rmjXI2Q3mE38yhYSVIC6-18" target="rmjXI2Q3mE38yhYSVIC6-24">
          <mxGeometry relative="1" as="geometry" />
        </mxCell>
        <mxCell id="rmjXI2Q3mE38yhYSVIC6-18" value="Order Table" style="image;aspect=fixed;html=1;points=[];align=center;fontSize=12;image=img/lib/azure2/databases/Azure_Database_PostgreSQL_Server.svg;verticalAlign=middle;horizontal=1;" vertex="1" parent="1">
          <mxGeometry x="200" y="410" width="48" height="64" as="geometry" />
        </mxCell>
        <mxCell id="rmjXI2Q3mE38yhYSVIC6-25" style="edgeStyle=orthogonalEdgeStyle;rounded=0;orthogonalLoop=1;jettySize=auto;html=1;" edge="1" parent="1" source="rmjXI2Q3mE38yhYSVIC6-20" target="rmjXI2Q3mE38yhYSVIC6-24">
          <mxGeometry relative="1" as="geometry" />
        </mxCell>
        <mxCell id="rmjXI2Q3mE38yhYSVIC6-28" value="Response Persistance" style="edgeStyle=orthogonalEdgeStyle;rounded=0;orthogonalLoop=1;jettySize=auto;html=1;" edge="1" parent="1" source="rmjXI2Q3mE38yhYSVIC6-20" target="rmjXI2Q3mE38yhYSVIC6-27">
          <mxGeometry relative="1" as="geometry">
            <mxPoint x="598" y="340" as="targetPoint" />
            <Array as="points">
              <mxPoint x="627" y="340" />
              <mxPoint x="627" y="341" />
            </Array>
          </mxGeometry>
        </mxCell>
        <mxCell id="rmjXI2Q3mE38yhYSVIC6-20" value="Response Ingestion" style="shape=process;whiteSpace=wrap;html=1;backgroundOutline=1;fillColor=#d5e8d4;strokeColor=#82b366;" vertex="1" parent="1">
          <mxGeometry x="655" y="310" width="120" height="60" as="geometry" />
        </mxCell>
        <mxCell id="rmjXI2Q3mE38yhYSVIC6-41" style="edgeStyle=orthogonalEdgeStyle;rounded=0;orthogonalLoop=1;jettySize=auto;html=1;entryX=0;entryY=0.5;entryDx=0;entryDy=0;" edge="1" parent="1" source="rmjXI2Q3mE38yhYSVIC6-24" target="rmjXI2Q3mE38yhYSVIC6-40">
          <mxGeometry relative="1" as="geometry" />
        </mxCell>
        <mxCell id="rmjXI2Q3mE38yhYSVIC6-24" value="Order Lineage" style="shape=process;whiteSpace=wrap;html=1;backgroundOutline=1;fillColor=#d5e8d4;strokeColor=#82b366;" vertex="1" parent="1">
          <mxGeometry x="655" y="430" width="120" height="60" as="geometry" />
        </mxCell>
        <mxCell id="rmjXI2Q3mE38yhYSVIC6-27" value="Response Table" style="image;aspect=fixed;html=1;points=[];align=center;fontSize=12;image=img/lib/azure2/databases/Azure_Database_PostgreSQL_Server.svg;" vertex="1" parent="1">
          <mxGeometry x="460" y="306" width="48" height="64" as="geometry" />
        </mxCell>
        <mxCell id="rmjXI2Q3mE38yhYSVIC6-39" style="edgeStyle=orthogonalEdgeStyle;rounded=0;orthogonalLoop=1;jettySize=auto;html=1;entryX=0;entryY=0.5;entryDx=0;entryDy=0;startArrow=classic;startFill=1;" edge="1" parent="1" source="rmjXI2Q3mE38yhYSVIC6-34" target="rmjXI2Q3mE38yhYSVIC6-35">
          <mxGeometry relative="1" as="geometry" />
        </mxCell>
        <mxCell id="rmjXI2Q3mE38yhYSVIC6-34" value="Rule Table" style="image;aspect=fixed;html=1;points=[];align=center;fontSize=12;image=img/lib/azure2/databases/Azure_Database_PostgreSQL_Server.svg;" vertex="1" parent="1">
          <mxGeometry x="910" y="310" width="48" height="64" as="geometry" />
        </mxCell>
        <mxCell id="rmjXI2Q3mE38yhYSVIC6-42" value="Broadcasted Rules" style="edgeStyle=orthogonalEdgeStyle;rounded=0;orthogonalLoop=1;jettySize=auto;html=1;fillColor=#f8cecc;strokeColor=#B85450;" edge="1" parent="1" source="rmjXI2Q3mE38yhYSVIC6-35" target="rmjXI2Q3mE38yhYSVIC6-40">
          <mxGeometry relative="1" as="geometry" />
        </mxCell>
        <mxCell id="rmjXI2Q3mE38yhYSVIC6-35" value="Response Ingestion" style="shape=process;whiteSpace=wrap;html=1;backgroundOutline=1;fillColor=#d5e8d4;strokeColor=#82b366;" vertex="1" parent="1">
          <mxGeometry x="1030" y="312" width="120" height="60" as="geometry" />
        </mxCell>
        <mxCell id="rmjXI2Q3mE38yhYSVIC6-36" value="Comet-D Rule Changes" style="shape=image;verticalLabelPosition=bottom;verticalAlign=top;imageAspect=0;aspect=fixed;image=data:image/png,iVBORw0KGgoAAAANSUhEUgAAAgAAAAIACAYAAAD0eNT6AAAABHNCSVQICAgIfAhkiAAAAAlwSFlzAABoNwAAaDcBnYAZnwAAABl0RVh0U29mdHdhcmUAd3d3Lmlua3NjYXBlLm9yZ5vuPBoAACAASURBVHic7N15nFxFtQfw36nbPTOZbLPvk/QsJJDJyrCJgGFVFAQV8KGAggtuIOCGPpFReIo+BUQREQQVBQk+XEBEQAPIkkhCEkggkNn3LTOTbZbuvnXeH0kQwiSZ7q67dPf58unPh89kpup0971V59atW0UQQogk0rB8eSCvcyxbBcO52tbFNlMhKc4lcD4IuQAVEHMBAyVgVIBQCsYOEEYnLZB4DEytBOoA625W6NXa6regt7KFYdumYYxmD13V+fw4AHb33QrhHPI6ACGE2Ad9f/78GdmcUR5RdIjSeh5A8wEcQUotAnPAw9g2EuhZTXqdimKzCgZai1S457xNm8IexiREXCQBEEJ4hW6tq5seiVrlAOYz4xgCnwLgSK8Di0MHEe4jxuNWUG8c2LSpvwHQXgclxIFIAiCEcMUttbWZET19LgX4HQT+AID3eXw17ygGVinNt1mBjCcue21dD+T2gfAZSQCEEE6gW2prZ0YQXEBQpwG4AMAhU/9rx+LyBBPCBF5BSv0ye3vmvy/tXjv5fAQhXJRip5kQwis3VFfPzgxkHsmMCxjqo8l6dU9uNIuEfyjo74yUFz/X8OSTUecrFOLtJAEQQsTl9vr64Mj27bWWHXgPEX0RwFyvY0pKjN9GLfXdr23ZuBlym0C4SBIAIcSU/SBUV8IqerIF9WkAJ3gdD4DUacUYfazw39b4jnuv6uwc8zockfpS5dQRQjjk5qqFxREVPRuMawCUex1POmDQzzPYariiZWOf17GI1CUJgBDibW6uWlgc4ejZGnwtEUq9jifVTHWeARPuQyRwzVc7NjY5HJJIQ5IACCEA7H5MLxwNLI8Sfx7M+YTdHT8TlRNzhtfxAQlO0Evi1o5BfyW2PvnV1k29XsciUkcSnxJCCDetAKxXQqFgllKZtp2ZHbQmZlh2RqFNuhJMhzDxQgKWMHCo17GmKib64ThPXNPQ2jrudSwi+UkCIIQw7pba2szt46ogYKm5RPZizXwsQKfsHVUQ8WOiMFhfMtHWeF+DrDYoEiAJgBDCNQ11dRmZu+wysqNLNHAqKT4HTMVexzUpv7eOjA6y1JlXt7y+wetQRHLy+yEuhEhxN1ZUTBuzsg5TjDMZ+lKAPB0lcGUhIJMYN010NH61AZAFhURMkuxIF0Kkuu8XzJ9pTwsvBVufAfFHvI4nSXTZzCde09m8xetARPKQBEAI4VsNQCBYfshCIvt8Jr4cTFlex/Q2vmpF+br1HS3ffgCwvY5E+J+vDl0hhNifBkAFykNHMdG3CTjN63h8bGN01Hpnw1Djdq8DEf4mCYAQIul8Lbd69vTpfC4xvgdwgdfxxMrpeQbM2G4RHfmNrubXHa1IJDVJAIQQSasBUCgPHWUxbgOw1Ot4DsrlFpdJX/itzvbfulurSBaSAAghUsJ3KioWsQ78lMD+2KTIJxj0/W91t36dZKdBsQ9JAIQQKaWhomoxbH0/gWVFwr0ID3F3+9kNsnCQeBNJAIQQKamhOHQMSD8IcPKtPphgyzzZHAMCHju0p/2958kTAmIPSQCEEClrBWBtLC2/mpiun8rvJ90iQDGjlehtP61BFg0SkARACJEGGsrLKzhKj0M2KgKAVT19xSf8AmsjXgcivCUJgBAiLTQACsXll2vGTV7HYlzsLflq1dd1XIOMBKQ1SQCEEGnlm6Wlh6koVjHRLK9j8RTjoe8MdJ8lTwekL8vrAIQQwk1P79w5eGLOrFu0zccDmOtFDD6ZazB/5fRZwadHd/zT60CEN3xxFAohhNsYoGvyS34Cos97HYsr9tPaa8KF3+3vkcWC0pAkAEKItPaNgpKvEPADr+PwFOPo/9na+2+vwxDukgRACJH2vlFQ/Ekw7vA6Dg9FJ8JW6Y92dA96HYhwjyQAQggB4Ov5RReC8Ruv4zAl1nkGxHgpONy3rEFWC0wbMglQCCEAPDO266Xjpk3fma5bDTOh2J6WbT0zNrrS61iEOyQBEEKIPZ4Z2/X88VnTshl4p9exeOSEd2bN+NOz47v6vA5EOE9uAQghxFvR13IK/w7wqV4H4gUi3j4xfVrJTZ2dY17HIpylvA5ACCF8hsMzMs/S0COM9PtPM2Zl7BxLmbkQYv9kBEAIISbxtRl5ddrCRifK9slCQAfEZC/735GR9V7HIZwjcwCEEGISz4bHBt6RMS1tJwWC6X2nTYz9+ElZKjhlSQIghBD78e7w2OpwRtbHQcjxOhYPzJ7Iyu5+fmJsrdeBCGf4fxxKCCE89JWcnKXaxjqv4/ACATpqIf/mkZERr2MR5skIgBBCHMBz4+O978jIrANQ53UsU2VwjgGRpqrnw+N/MFWg8A8ZARBCiIP4+syZ+RNaHXyZ3BRtUQO2VfmDsaFOr+MQZskIgBBCHMQz4fDYMRmZNQCWeB2LFzTpylWRiQe8jkOYlaL5qhBCmHXltPxyUpG0vQq2YZf8eJesEJhKZCEgIYSYgpvGtnYBeJSw+8op2V6JUrC+b6AY4SOSAAghxBQpjQavY4hXogmEAj72pZkzC9yPXDhFEgAhhJiitrHtawgUJaTnf9D0Da+/A2GOzAEQQogYfHnGrB8T6HKv43DEQdb8I0CP7NqW9Qsg4k5AwkkyAiCEEDEIEt+WLPftY3aQgJigZmbPOsWL0IR5kgAIIUQMMnfsaHSrLq8nDk46F0CpHzj6poVr5BaAEELE6GszZz0LpmO9jsMrlg6WfXd0sMfrOERiZARACCFixfQbr6/EvXzZKvopA5+i8JgkAEIIESMm/aQv7tl7RIH/u0H6j6QnX6AQQsQoOyura7Kfe31l7tYLQMauWbNq4vjohI9IAiCEEDG6dmBgl9fP5Hv9X9C2Puj19yASIwmAEELEiAAmoMnrK3HDV/WxfQakr4rjz4SPSAIghBBxYMZTXsdgUuwJAxU1yNLASS3gdQBCCJGMlOLNKT317yCrAgJAhNXJAO53PBbhCBkBEEKIOBCwzethe0dfdPCXRSm6JHKakARACCHiQMrbBMAPGDh2BWB5HYeIjyQAQggRB8Vqh5f1ez5CsOf1yrS8Uqffq3CGzAEQQog42Jp3KSJM6WZ5CtMBXgag0+s4ROwkARBCiDgElMpiZvhnQN4bRHgPgIe8jkPETm4BCCFEHJSm6cl6794s/ojXEYj4SAIghBBxsJU9I56/8/qevfEXU86Xi4unx/NZCG/JLQAhhIgDaZpJqXlJH7MZo9FKAJu9jkPERhIAIYSIgwWUpdP0vwO9V4t0NSQBSDpyC0AIIeLACod7P/7u0usg/8ysFyT2aQovyAiAEELEgYiPAafJPYCDvE2COsqdQIRJkgAIIUSMzgUsYpXjdRxmxX9Dg5jfZTAQ4RK5BSCEEDE6oqAg2+tR+SmO3Mcg/pqYVNG5siRw0pEEQAghYmRPcLnXMUyFm8lGfW5uXI9FCu/ILQAhhIiRRThSex2Ez0SZcwBs8zoOMXWSAAghRMz49DSZ/jdlAaJZXscgYiMJgBBCxIiJziJ2dhWApFtjIIrZXocgYiMJgBBCxODWwsIZOyfsbKfrSb4RBivP6whEbCQBEEKIGOycsBcmX+fsPFK60OsYRGwkAUhitwPBHsBuAGQ+khAuUcCHke6bAEx+f6LE5ShEguQxwCTVkJc3a8esgn82SOcvhJsISn3azHP3SWzS9YBR5mlMImaSACShH88qPGSWVl2AfsHrWIRIJ98vKCgl5v3e//d64R8vX4qQYisjpj65BZBkbsopWG6zXgkGLKJHvI5HiHRihfnkdB/9F6lDEoAkcmNO4RfB+ua97U8gSK94GpAQaUYpvioVNwBKukcOhRGSACSJm2fnf41Z3/Dmn0Wysoa9ikeIdPPdmTPzwbTU6zickHopjZgKmQOQBG6aXfhdgG4gvPW/Kzs7x72OTYh0MU1lfsDr++x+fonkIyMAPnfz7IIfEvhL+/6cgS6SkTshXEPgb3kdg59JEpB8JAHwsVtmF/wcwKWT/RuBN7kcjhBp69a8vMqoTZVex7EvuQIQiZAEwKd+klNwLe+n8wcAEMmuW0K4xNbqYq9jmIyvrrqJIl6HIGIjCYAP3ZKTdwmAhgOd3KRl200h3NAABBj4b3n8bz/2DENoRq+3gYhYSQLgMz/NLTgDjF8e7PeYsMONeIRIdwU5+e9jIMPrOHxrT2KkwJIAJBlJAHzkZ7m5i5nx0L4/n+w+H4HluxPCFfRjExf/qX6/nogHvY5BxEY6EZ/4fkHBTLbp2cmaiUkbH6ICx4MSIs3dlpu70GbMNVFWqt9BYKitXscgYiMJgA80AGpmlJ4GMGPKzYRsvCGE4zRb3031jtsURbYsTJZkJAHwgaLZBbcSENMKYwyUOhWPEAK4o6ioOBLmM72OYzdvbyBMpfZoGNsdD0QYJQmAx36eW3wms/5MHH9aazwYIcQbomH8L8Hrrncvb8chplI7B3mn44EIo2QpYA/dkpc3C8x/iGvrTUDdAmR6ErgQKe62GcVFAF8IeL/EbtK8iEbi+7SFV2QEwEOZWj0IcNyPF82YUTILO3sHTMYkhABUQN/gjyv/5FEyNLTL6xhEbCQB8Mgv8grPA+PkRMqIBuxyAJIACGHQ7TPLCoDIxck++c/VBIZ4+3mA7WaVInGSAHjg9tzc2cy4L9EGhhUfBWC9iZiEEHtY4e8hBZb9c/cd0HOuVieMkDkAHiAEf6IAleg9N8V0hvvRC5G67srLqySiT3p+Pz3JXhZhTXyfuPCSjAC47M5ZhbUALjSUn5+O3QXJ7UohDLCh7k7+a38PsOxOmoxkBMBlpGiFwcw7cOesily334MQPmKsv74zv+QoYnUywdv/vL+ej+OlAs2mvgfhHkkAXHR3buHxICwzWaYVCNebLE+IZPGLgoJ5vykuzjZRVgOgoPkPJspKlA+685hfQUS6HPkwhKMkAXAT4U7TJx5rPs/dNyGE936ZW3i6itLpF/X1GXn0rCK3+DwCV3rdkSbra3zr1v54PnfhLZkD4JJf5xQu00zzyHC5pNQFDHyaZB6ASAMNgJqbW3wzM3+0Y6S/2ESZd4dCWdg+djfLGRQXBnouBSJexyFiJwmAW4h+um/nb6K9Yease3LLKjHc3W6gOCF8a0VFxbTRXeHHGHycsuiUBiBqpOBtozcByEokOU/n3EEBf/Q6BhEfuQXggt/MLq5i4Nh9f27sNgAi73f+XQjhnbtmF1fv2jnRzcBxAFZ9fGvfP4yUm1eyAEA8e3G8hddD8F6+QPxkop+f8IYkAG6wcDkRwdwL+7zUl71+i0I45Ve5xecrxU1ElEMAEOAPmCi3AVAW8yNed6DJ/ooo3hDzhy98QW4BOOx2IMjA5WS01LeVNveuGSWFl8i+ACKF3B0KZalto78H8Vl7f8bE11w8MNBrovyq/MLPg3mu2XMzuRi5DZmR0WmgGOEBSQAcNi2/+Hiw8yMtgSz6EHbi507XI4QbflVUVGNtG1vFRAV7f0aMwYqh/htMlH/vzLKCCNu3mCgrmSWc/BDvvLS7e9RELMJ9cgvAYcT8bVeG4rRucOs9CeEUBug3ucVXqyg1MqHgzf+mFb3vRDMT/8gORv/P66HzVHgppodi/vSFb6Tz6JfjVlRUTAuPRlzLjkmr0EdHetrcqk8Ik+7OyckJqMzHABy5778x870XDfd/1EQ99+SXXATmX5soK90R8Qcv2NovTwEkKRkBcFB010S9m9k4lP1xV96YEIb9Lq/o3UGV1UfAkW87tom3F+TPusREPfdOLyom5l97feWc0HnuIxbp1V7HIOInCYCDmJSRRiuG+q5ukO9UJJEVhYUzfptX/DBAjxI4Y7IOz2Kc/t7GxolE62oAFGfQY4mW4zWvE5A3hv+B6GuDg0YmZApvyCRAhzQASgEXurlACDFn1eYW12G472UXqxUiLvcUFL8/YtMDBM7Y7y8x33v+cL+Rvebn5ZZ8iYkX++0qOon9sQHQXgch4icJgEMWFBYW2TYF3G5sLMIVAD7hcrVCTNmK3NzZUcp4ABqnHvBBNMbQ4PCsS4DEl5n/VVFRDaL8A+n8zSHi+7yOQSRGhosdoqPWMo/u+V1yC2ozE34DQphHv8srOVdT5iCBTj3YtriK+aTLYWToP5AZtVb6YQPfVBIlvcrrGERiZATAKQqnmyoq1oYjP3fnyRjGI6bqFyJRKwoLS2zbegDAcVO6Lcb8vf8a6Teywtz8vJLbAa40Udbkpn6GpkoSQED0/MHB3gu9DkQkRBIAhxDjfK/O9gDR/wCSAAjvrQQCfXkl39Aa36Ypng9MvMUa7LvGRP33FRS/nxiuTsZNB8T8AKX3HkgpIVUSUl9ZAwSb80vCXsYQCHDxB/v6ZI9u4ZkVOYVLtWU9SsCUt+1lQCtll59nYLnfe4uKipWtukludSZs355egU8+b2vfPz0JRhgjIwAOeL2oKC9gextDxKYLAfzI2yhEOvrd7Dm5QSt8Dwjvi7XnVeDTzjXQ+a8ALGj6FxLo/OXy9j/2vVKclmnJ/f8UIAmAA5St5ng9tELgBgZulGE64ZYGIHBYfsmXCOG41utnxo/OGzKzzS/nl/yCGIckUobX57CPrT1T1v9PCZIAOCADOMzzh2OZZvxx95oAG70ORaQ8eiCv7FRA3wcgL84i1r0y1PNVE8E8kF98FiD3/R2j+YdehyDMkATAAQya74erB1bqswA+73UcInU9mF96mGZeAdIL4y2DicbZHj+xwcCiMv+XV16hYT/oh/PPK04P+VnRwOMOVyFcIgmAI3ieHwYQGfyZlcAXTzSzg5oQb1gxqyJPBe07GPggTXV6//4df+7w8LZEC3morCw7PK7XESitJ/3F/21MJXWgrg/u6NoadxXCVyQBcACBFngdAwAQoIbyyo/AUJdM2BFGPFRWlj0xztcT2VcaKvKacwZ71iRaCAPqjxP8NAgF3qfeyergnxwr/K8LgQiXSALgAAXM88vMOwX7KgDneR2HSG63A8Gi/JJPRif4FkVm2g0Grfzg1u7/MVHWn/JLfwWgXjp/Z6kI/9nrGIQ5cr4YxgD9uaDU9TmAB0o4MnOmZ5nYTU2knxWAlZlfepYG3w3QLFPlMqhr28yM2otbW8cTLeuP+SVfAOgnJuLykl8uGvaLMfSBoZ4CebIodcgIgGEPAGr/W5s550CZ3MTw2HEAjDxeJdJDA6CW5peeBeAuJuSQyWsFonEepyUmOv8/FZYez4yk7/yBZLga42ul808tkgAYV2cRhrwO4i2I+EpIAiCmgAH6U1HZqaT5HgBFjlRi6/oP7uhNeCLZH3NKQsx40v8dZ2oIB3G/1zEIs+TcMeyhsrJsDvMur+PYV89gT8alQMTrOIQ/MUB/KSw9nhi/YWCuczXRWWcNdv8l0VL+mBPKUcHxDjDNMBGVOBh66azB7iVeRyHMkhEAw2ZEImonglP+fbfG0yoKy+sw0LXepepEkmCAHi6oeNdDZN9FTFUAO3ZVwKBvm+j8H0FtZjS480W/dP5pMiZuZHMm4S+SAHjMrSEYBv8XAEkABIDd9/gPLyh/78PgOwFdTLz3SIztiIyh87vvrMHub8dU+OT1qYcKRp8Aq6pEyzIlHYZRC7KULP6TgiQBMGwAQLbXQUyG8QkAV3sdhvDWCsDKzq84C9B3MDjOZXv/Y4qd37qxwe4LYeBi+aGC8l8R+LhEyxFTx8wPHtvZOeZ1HMI8SQAc4NMrgoJH8vJmvXdoaLvXgQj33Y76YFlB93nE+BlIzwLcOk6phzP4uPOAhPfH/GtBWQODLzQRlYghG+Pgt5yMQ3hHEgDTMjNtjHu+FdCkyMpaDOAZr+MQ7llRUTFt+jhfBOq9GUxZbmanRLzTDmKxiZ3jHs4r+wSAa02Fnyb37Q9oap8l9Zwx1P6Kw6EIj0gCYNhwZ2d0RkGZ12FMiplOgyQAaeGJmeX54Uy+GuP6ywDe0uO50vkRjTMih5zZPTCYaFF/yy/9gCbcaSKsvXw6Suc7iukL8ux/6pIEwLAewJ7j09aFwGcCkOG8FPZEUVFxmAPfCzNfvL/fcfrwZEBnMpacMjjQm2hZfyssO44Zab27n1cY0Du2zn4Y6PQ6FOEQSQAMawD0oz69vmBgKQOKDGy7KnyFHi0qX8zMP40wjiPA00tcRXT4Kf1drydazsP5pYcx8FTimw2mFrcuxwl0w3nYFHapOuEBSQAcQMQ72SfPKL8ZAfhHeXkuumQ7z1RwO+qDoaKe92lWPwVzudHleuPEFp34nt7ODYmW80heeYWyaD2Y39jad+odX2qPWLv1LYcpcotLVQmPSALgAGbqJmCe13FMhqNUBkASgCT2aEVFHk3wZ4HeBmYKkE86PIvoQ6f2dj6ZaDlPFBUVR8CvgfGWbTWm3vF5nwglOwIeOau/v8/rOISzJAFwgAL1AuzLBEDraAWAl72OQ8TunwVl88NE36UJ/uDen/mmq2O69NSBzgcTLeaJ8vJ8ewKbFflzOY10YZO63OsYhPMkAXAE9yfaMDt1TacQqHGoaOEABtQTJRUnsM23R4F56uB/4jpiXHnqYOcvEi3nmYKCmaNhbCJCjom4/MIf4zMxeeq9/R1NXgchnCcJgAPIwLRZ567s+DDHihbG/LmgYOY0yrrkcdLfJZuzfXOlvw8Gf+HUwe5bEy3n78XF00d18FWAi03E5Sd+/e72h7T+rNcxCHdIAuAIavLLfdlJOLPFqzDibzmhUCAY+RaAiwEG2MfdB+Fzp/V335ZoMc9VVEzbFdYvA1xuIiyRkBdO3drzqtdBCHdIAuAEpTtI+7bhnu11AOKtGgD1zuLyoxTjZubI0V7HMzV0xSn9nQl3/g+VlWWPTvB6Avlmc590pgif8joG4R5JABygSPV4HcMBJLwBjDBjZWHhDJszPkrgH0DDxfX5E8OMz5wy2Hl7ouWsLCycwRF6hYFKE3GZ5NvxO0fx2pP6uxN+hFMkD0kAHBBga8CmhPc+cQZjutchpLt/lpXNh21dy8znKxOr9jjQW+2vSGZceoqBCX+P5NXOsjGxmcCliZblBH8lYu6kI8z0EVcqEr4hCYADxoL2tkyfrp9FhCGvY0hHK1CXUVi0/b1M+mZEaa7RRt2B3mqyIonwqRP7OhNek39lKJTDo+OvQeajTJHz6QgxP3TiYOKrN3qJAfVkYWE2MH2GbY/nKRUoZEI2s54NpQLQPN0ijNtENjSPEJHNFg1aNg+HVWR7htajAwMDYyZ2rkwWkgA4QGdl7aLwuNdhTI5ZFgFy0WMFlWUZir+ose3LABT5eVLfgV1wYl/n7xIt5LmKirzwaPQ1AAUGYhKTiC+1DH7acBiOWoP64FhBb1WYsARQxyriM1cCex5xjkIFdndtBIBoz8OzavfUbLXn/wGANIMJCHIQTEBBUQX+ydgOwioQrdVav8gBvSkyMdF1+tDQjlTbGClpWyM/Y4CeKqrw53r7zHcvH+i6xOswUtnuK5E5x5LSN4JxpNfxJEqB3nNCf8ffEy1nZVlZAUXUFjj4nH9Ktc4uYeDWk/o7v+B1HAfCAP2zqLKaiE8mxiUAvJosu5qI/8HA89C0OTMTXcd2do55FEvCZATAAQTwU8AQfDjhTgFdXseQqlbmhHJUMPqxp4mvV9Az3O6NHKhOa8Kxy/s6Vida0KqiouKJiHqdafdkR6fIFU3MdFCPf93rIPbnmbKyOZEIXfgU4WoL7Po5NYmjwXT03qk74TDwVGHFdib8hYG/Wyr64mzmtiV9fbu8DvRg1qA+KAmAQxRoLYNP9TqOfWnFG72OIZUwQE8WV9YR83WE6Nm7f+pNN2SyViIKs4ouPakn8WfCHyuoLJuAfg2EGdJB+wzjquMGB3d4HcabbUJdRn/RtnMB+lE0ysV+3w1yT1J7AQEXaB3AMIAniyvHwfwwgZ+IKlo3w+Kmo7q6hr3eifWZgoKZESvzXaTpqu3Bns9KAuCclwhwPAGINSEmG1scCSTNrAyFsqyx8Nn/YutGi/05kz1+vFNZuu647p72REt6Kq+skiy9GUyytv9+eHdRSz19Ax0/9az6ffxrzpxcPa4vH8S2byogkNQ3dJizAJwD0DkBDYxrwtNFFXiSsVkR/sKkn4VWr1o83vvE4OCuBmcSA1oZCs22RnUdQ58KwkU2o0oxQIquWt7d/ZokAA4h4s3swoSvWGsIqky5BZCAZ8rK5nDU+ipG7c8D1p6funGJ4lpjOMjKXnBcd+9AogX9q3hONYFfZeaMA/1eEjfzRnh1gUuazvTDjPeVOaGcQDByI4/ri31+sZ8wIhwK4FBiBRCgKQsnFVXgJFAPCM9o5o0KaIZGBwft/swJtWMsi8eD4fBEVkbG276rHRkZGcGddjYy7Jl2FPkKVMOsDofid4JxJEaju+sF3jjRGHju+L6OmwGZA+AYBdWifdi0BfrzhoAWr8NIKiuBQLBozokA34goFppspKZ+hLiQTBK3BSJZi48ZatyeaFlPF8w9HKxfYEAdLPZUb/T9iIE/HT/YvtbLGB6prc2cuW3iK6DodQAl9XGQeEvPpWCcq4BzAew+a2wL4QBgRQlaZe3ty9/CikahFYCoAu2Ng3j/ARGN74rsOn3v0wySADiEFHWT7bsEYOMRWBvxOohksbKsrCAQsS5Vir51sKvYePml0WPC2si0wHHH9TUm/Pzqc0WV79bQj5qISzhCT4sEP+5V5QzQM8WV/4Ud4btAyPLPWRC/ZHkHzHTKe4eG3kjwJQFwSJAiA2GyJv03r9ICIvzao6qTBgP0XEnlEWD+Hmw6efdDwwy/T0RK8KD68zv7Oj5EBoaD/1VSeTFr3OX3j8sE36X3U6Y/d8Rw8zYvan6moLLsOcV/JcbSZP4EkxEDXz6hv/3ZN/9MEgCHzM7O3jGwY2LSf/OscbTVP7yq2u/WlJVlT0TVB1cR3USMguTJ6feIM1wC3XFMX/ulJhY4ebao8ktg/DDZPrp4TU6tpgAAIABJREFUJeXbZLz+eH/XHW5X2wCoU0rLP0UaP9/vcL/kA84h3H9cX8eP3v5j4QgGaFVxpa8WA+IgZyfzohVOWF1QPk8rugZEF0z1b1KnnaIrj+1rvznRUnYf63N+zODLTEQlnDMR0JUndnV1ulnnyvLyioyI+gcR5rlZ78Gkznl8YAy89M6+jsMnG+GTEQCHEMCrQH0AF3sdy2608h2dHdL5Y/cCGNHi/vcy8Y8109xY/z4VsmbF+MDR/e1/SrQcBtTzxXN+T+BzU+FzSWUKuMrtzv+5oooPIEoP+vGk8WFI5jFGWI8dt7/be5IAOGsDQKeZKy6BnJX5BnNxJKfnKiryAhH6XAT91xIQSOJ1+ePGQJRsOuZoAzPA16A+uKq4/3EFfpeJ2NySLld+b0Wb/9bX/mO3alsBWJXFc24D+FNu1Sn2QTSeaXPd4QdY6EkSAAcp8CtsNAGIv8OyM/S/zMWRXFaVzFlAjBsQwZlvbAaSjhgj0UB0yXF93Qkv8PNcRcU0OzLwbwItjCUAP0i/tA9QVvS0BpdWoXuuoiJPRdSzAB/qRn3p6GBnEgNRi2nB4YPt3Qf6PUkAHESERl+0ecyPptu9/5VYHsgubn4PAbeAUeWHr8FLDNqMaPDo4/rbE37G/19z5uRaE/wygPLYOtN07Hq9x8CVR3V3d7hR16qiqsUqql9gcIaT37e357P3rclBPllNREuO7m076IIvkgA4SDG1+WEWoEbgaq9jcMuqvNpZVnDiE0wt3wUja+/P07nrIeDxlr4ZZ5yHTeFEy1pVXl5hjeNlJnJsRz8xufi6HVp9dF+bK0P/L5SElmu2V7IL/aO357O/WxMNfew7ejtemcrvSgLgJBs9mHwpANcwuOuo/paXvI3CeWuKKmtY0Q3g8DkAgdxohZIAEf+wvrfjq0cauGz5d2FoKaL6BRACXjSB6f6NxvqZMxDNmEbvcWMP+xdKKj/PrH/q764x5WlWfPQ7ejrXTPUPJAFwEGdEB8j29iNm0GfdaAC8wIBaUxI6AZpvB/E8SsF3mchbYuJLjuztuNtEHC8Uh84H9L0myoqXdC4x0nzystbWESerYIDWFFfeCKYr5Ps5OKeaKGbeGbSiCw/v6WmL5e8kAXDSWNY2ypxkAWeXEFF4R0/V34CE53z5yqq82lnBzIlPrIX6LrHOSuVZffE0qgxEAf3Oo3o7/51o/QzQi0VzbmDoryZalnAPM9961EDH007W0QCotSVz7ifGOQeMxckgkowTSRKD+hC06w7v6tka699KAuCgHbP1xOw4VlY3dcIw68+ciCe9y0AM21BeXqHtwHc0wheDCSRNy9sQqB9Bvezwjs4Dzv6dipVA4MXSuQ+A+Wy5uouf20cpMZp29Hdc4WQdDYA6o2TO/QDOOVivFtexI6f2lDBhXSaPH7+kq29XPH8v57WDGLDWlcz1qgMebOxtK/HDdp+JWlNcsUiR9RMk2fPmHlirVfSEI7q7RxMtaE1ZWbbFgWeZsTSev5f22xsMRBUyyg7vbUx4O+f9aQDU+0vm3M848JW/cBrfenhvx+WUwOOdMgLgLO1VhsXM5ydz598AqLNKQicQ4xdMfMjunyZPvup6B8i4b1lf24UmNvRZUzavQPH4emYqj7eM5PmmEuG/NIegT3Gy82eA1hfP+TUD56T6d+y/b/dNNC6s7+/4baLFSALgIAJ4A1HYqa1kD2Dz0r72pNz4Zw3qg1Q08GGL6CcMzknWxfrcDJuAy5b2tf3URFkvFVcs0hxew0xuH7NJyF8HJwHXLe3tfMqp8hmgdSVz7gfoXKfq8BN/fbtvaNPKOuGI3mYjE7skAXAYM3cBqHK51nOSbeZ/SyiUtW1Mf4rU1h/u7Xx8egL6iWbFJyztfusWn/HaUFz5fk3qz2BO+88+qU4eAAA9vaS39Vona1hfMveXBKRF5+9HxLh+SV9bg4lRvr0kAXAYAW4nAD9b0tu+ycX6ErKpsG5GNLDzi9vH+TtEpKTzmSrqt4P2ssM7OhKe7AeANpTO/QYzrjdQVkpIpmOQgKGICp/uZNK/oSTUwOCLnSpfHABxF5F18pLultdMFy0JgNOYu4hcak4YI1bBjCvR6051iVgXCuVY4/i6jZ1f9cvz+z4J46AYWDUaiJ50bEfiyzuvBAJ5JXPuBUN280tOOqKsZUd0tyU88XN/1peELgb42mQ5PpLlPJ4KRXTVop62W0xe9b+ZJAAOUwp9bh2RGnR63abEl3t10osltYUBil6Hcb7U61j2lRQNHNHti3taP5fIzN+9NhXWzbCtnc8CWGwgMuEJ+6QjutscW+hjQ/GckwG+y6nynZAU5/FBMHBPdMK67Ijh5m1O1iMJgNM07XTliGT8dklf6yoXaorLpoqKPNu2biCOfCqlUnQ3MT6xqLfVSGP8SmnVXFvvXE9Ayqzpn26HFRNfsaTHuUl/m0rmLLBBTzhVvng7Ap5RduDiuoGmRjfqkwTAYWTBhuNT2am/fYb1SfQ5XE0cmnKrZ49m2texTZcpIDXS87dwvtshonGAj63rbltnorxNxXNPslk/DkqtNRRT7tA6sLsX97Q7tsnPhuKaIiZ7neyp4Q4CHmWtv7Cov6PJzXolAXAYgRx/Ft/S+pj3NrZMOF1PLDYXzJ8ZDUx8c5z0V5XDTbO3TZSz740YLTtV5Miju7piXuZzMhtLQ1cycGOadZYphRirF/S2ftKp8jfV1WXw8I41YMpwa/oScJDzOEXzEAbuIhVpWOjSds37kgTAYcRsO9VJ7D4n9IWH9rUfdN9nt3SXlWUPIXi1zRPXuNV2pGxnRvTQWFneh45euzaSaFErAKuudO7dAC40EJkwbKr9GzFaMmYE3mViDsh+4qCNw6MPEqtKJ8o/kAOexyl0khPQphV9dUaQ/1LV2hrHYvHmSALgMCKynBpFI8b9C3rbE14NyoSVWB4oKmn7zAjzjxVSa2jZC0z62gXd7ddRd0vCR8+asrLsbM58GuB6E7GZkqIXdXGZYv82kjWhltX0Njo22vdq6dxvKOb3OVV+GhsB8APFuO+w3tZWr4PZSxIAx9FMJzatYULHaFn+hehtNV52THEAtLms6gzo1t+CMMvTYJLMfo4KTcB7F3S3/91EHa9VVJRrO7iewQUmyjMphS7qHMegaIayFtUMNzo2K/zVitBytnG9fC+x2W/rzmgiwq2ZpP6vuru5w4+Ls0kC4DBinmG8TMK4psiyIwwMDSdic2nlEa+ztYKYq2JpzX13Fnhkko9siEGHH9bTEtOe3vuzqbTqeG3zkwAradSTW0DxkYd0NXY6VX5LYahk3MY/Yj1O5Fz+z3lMoH7N+I2y9IPh6PhLS/ri26HPTZIAOIzw9qtiAyfNssMMTQqLx6sloRAR3wPQcfE84CCd0aRemNBjJ5pqNF4trrqMwLeYKEu8nZsdHzO/b15X23qnyt9UV5cxPrxzDZhivnWXxufykAL+DsbfobB6q4q2HduZ+MJcbpMEwGnMRdhnKm1CJw3ze+f3tG1OKKY4bSgunp5pTbuFGJek9alvmAbfcWhP22dMTOxaAVhLykK/BPPHTMQ2Gbnqc+/oJ+iL5ve2P+JkHdbWXb8Fxb/zY8pibAfhOQK9yNCv2BY1TgtT61B/3tAR8Hb01RRJABxGSs0z1WJq0JWH9jb/zUxpU9cAqI+WVn1Eg+4m5rQ+Zkx3fqz1Jw7razOyuM+G4uLpWSr7X2AsiyOSKf+mpH7uIE2Xz+trv8fJOjaXzDmXKLU3+CFQP5h3aEIniLYTYxszdxGog0j3MNSAYnvIDvJwcGdwl85X47WNjZH9J+S+eegqYWndmLuBGEYepyHw7fN6Wm42UVYstpTU1hH0nxlc48RkxmRjqvMj4nGAjz2kz8ziPk1l1XNs5nUA8uKMyEQYwhAibjikr+UnTtbRUhgqCRP93sk6DoaJwmB+ncBNIBogTUOsMMysxwDaSlC7wBhXFg2DEWaOjNnKsgNQo6MAAjQ+CgD5kciEtiwezs2Njm3K4nqsje45omNvtIZNvkN/kwTAQQxYjQbaVQLdV9Pd8tnES5q6zQXzZwYyIrcz7PP3nkHSRZjBjJYoRY40NY+jsbzmJM36cTrYyn5pnr8lz9unmw/pbvm2kzUwYDUG1NMEduSRXQL1a+jnFWEdiF5VTN0221t1QG+zdmXuRB4mftfYGGkwvZ5Bt4nNMdOHJAAO6isuzkq402R+8Lc9LRc0uNR+NQDqorKqSzTCtwOQ2eOmET1SW5p7Nhl6gqOxrOrLYP2/B/ueGEj7DC5J3v4dtd3NVzldSVNZ1U0AH5LoZ0KgLRr8ZyL8G7a9aee46v7zSOv2hoN17EMJViyMSJJzIjk1l1bNZUJrvH/PwF9rulve79SqX/tqKqueA+i/AbTAjfrc4pcrPyL+XnVX63+beB6YAau5rPoeBp9vIjbhPQbfXdvd+gmnnxffUlG7nLS9Mta/I+JxZvotgx+2mNYPleV1e/0oskiMjAA4a04CGdbja7tbzqp1ofNfAViHl1ZdDfD1qZgT+uEdacJ5tV2tD5goq7+wbkZzxuizYF7sh/cmEseEe2q7nO/8m3KrZ2vWsSwy9SgT7gqE+V+hgda+t8TXkzqT4dKVJAAO0sBhcd5ge7qqu+X0asDxjYSayqvnkebHQJjrdF3piIjHbWUdeUhH00YT5bUWz63aaY2+SJw62/gejF9GcJyiQPeFupo/5spKcdP0HxVTxoF+hYH7CfRTna1eOKTRuWWHhfckAXBQgOiY2M9oejTU3XQGOdz5M5YHWsravkeML791nYJUb25dxGgJqOgRVR2tRu54tpSG3q2JHjVRVjJJ8VGO+0PdzR91o/NvLq86B4wTJ/1HxgtKqa8NluQ8I8P66SPFzy1vtZZVDwMxXand+6vu5gsbHB7231JSuyCoeCXARU7Wk4gUSEMeH82ddkbdpk1hA2VRa2nNN5j4egNlpYHkOHoIfPdcF+75A0BLTiiHs9UA4T/reDBRmFj/D0fp9ur+lj6nYxD+IwmAQzYUF0/PsabvnOrvM3Dr3O7my5xsDBig9tLQ5UzK9fUE0szPftXdfFmDgUSOAautrPo3AD6SeFjCbfs7mQn42dzu5i+4tUFMa1n1EwycDADE2MmKvjyak3W3oQRVJCm5BeCQIpo5Nzz19r8h1N3s6HO/bXPm5LZHA48DqJesz0GKL5zb2WJki+YtebWz2rLs1QQcaqI8NyXHNbjzJjvXGPh+qLv5ardiaC6vPQ+sTyZQvwJ9urKn8WECbHS5FYHwK0kAHBJV9rE0hQEWAl9W2d3yUydj6SipOZ2j+AuQ3sv4OomJwhbU0RWdW4xs2tJRUX0I2/pFBhnfTdINkmROjoiumdPV5NqtnLY5c3LZ5nuI6ONzupruceuRYpEcpENwCqnPHXTpXE0frOxp/qNTIXB9fbCzd+iXAF/oVoOcpld+HRk21Zf2bhkwUVhbWdWZzPgLlMMdaZp+WV5hxpVzuptcu/3GAHVEAx9QaiKnMgl3qhPOk0TdAS2hUFYgovZ/whGPM6kj5xh6NGwyXWU1lTbpFwhU7FQdAgD4qfFp1rtNPC7FAHWWVX8LhAYDgYk4OZEXEfGnKjtb7nSgaCHiJiMADghEsWT/mRX3hcNYUt3f5Nis246SmtOZ+GGF2Pf3FjG5vbyr5XOmtvHtrKj+DbF3k/1kQGA301dFNuGCUGfL7wwXK0TCJAFwgNLWR/bTijwXDuqTq7tax52olwHqKq+5noBvyOAOEEuXFmvnpxU+Maej2cg2vt1lZdmapj0D5ji28TVHjhjziPn9lV0tD3kdhxCTkXPeMAasnvLa8X0n3DHzXWXdzZ9yahJOSyiUlRmxHgH2s9DHAciVX0y0JvvYys7W1SYK6y8MlUQzrA0M+HZNBhEfZdvLS3tbn/I6DiH2R0YADOsqDx2p3jbbnq8s7252bPJPZ3lthYroNQDiut8vWeDUEGM7gxdVdrW2myivu6z28IjC88ScId9B4vySyDJR2FI4vLSrdZPXsQhxIJIAGKbY+trelXWZKKw5+q6KrtZVTtXXW159MoMfg9zvdxQxtYxlRA+vam0dMVFeb1nNfzHxfZRgr+WXTs8P/JBEEWO7DdSVtjd2eh2LEAfjh3MmZXSXlWUrmrYLABj8epTC76js7HRs5+uBitpP2sx3OFW+37nV+THw3K5pdJKpmf595TXfYeCbJmIT/sGErmwVWZTT3j7sdSxCTIWMABhk0bQLAYCJ7i3prPwY4cmoU3X1ldVeazM3OFV+MnAje2XgwdKupvNMbM7EgNVXUXMPGOdL5p1iCBtZjx2d09k96nUoQkyVtEOGrACs5WU1I0z4fHFX02+cqocBNVBeeyeDL3aqDrEbAdcXdjV9y8R67d1lZdkWZT8L8FITsaWCVLl9wcBTJSU5p5LsoieSjCQAhvRXVp1ANvoKu1tec6oOXr480N/Y+VcCn+ZUHWIPxseLupp+baKozvLy/AyV+TKYSncX7UO+DCoZ0ANFXY3/JUvsimQkCYAha+rrg07uo91RUTEtC1nPAUjqK8hk6GcsRaflt2953ERZPaFDQ1Yk+jIICazpnwyfWlq6pbCz6Qq3dvQTwjRJAJJAb3HxdCsw81UQKr2OJcVpKD6qsL1prYnCBspqD4ei1bIJU2rZ09tfXdTZ+H1vI4kfA2ptfb1VD6Cnpye49+e7srPtbbNn6/q1a6MAIMlNapMEwOe4omLaIKZtInCV17GkMiYez2Asmt3Z1GiivIHy6vcRqYdNlOUX0hPsofn8wu6m33sdxoGsBAJ1oVBBQFs1Uab5SlMVEy9i0OJY2hICDTGwjsGbFeg11tymNBqtjHDP7Pb27SYmxwrvSALgYxwKZQ1FAy8BOMTrWFIZASO2FVlQ2NbWY6K8gYp5nybo202UJXxFk+bj87ubnvM6kH1tL5tXMAH9Dlg4EUxnu3XBwMR9xPQYgMcoihfzOLuN+l7a5UbdInGSAPjUltrazLwJvAjGAq9jSXFdO1V40VxDz25vLT/kOyC+xkRZwj+YeTSgaHFOR2OT17EAuy8OtkYzFivYHwLo0wzkTOnvnA4Mu0fTiOkPIP4/RvjfBR0dvTJJ0p8kAdhjW6j2mNmtjY6t2BcLrq8Pbu3btpoInm4Ok+oYaNLjmUuLBjbtNFAWDVUechvAl5qILeml1v2C/owoFs7sbRzwMggGrJHyQxZpxVeD8WEvY4kVA08ppvu0xtP588u30JPOrZEipk4SAACDFYccbSkcldu+5Sdex8L19cHhgW3PM1DvdSz7lRqN++q8WZkn0KZN4UQL4uXLA0NNHQ8B9B4TgQn/IGDjuD16dFm3Nwv8MEADFdW1FqnPAfSF1JlQys+A6deWZf1jdttrbTJC4I20TwB2zKldEAZeho25+V3ert/NgBqaU7sSwAlexpEGnmspnL3cxGObXF8fHBoYeRagI00EJlww9QT2sZai2Wc4+Xjv/jCgtlXWnmIzfgHCXLfrdxsDf7LAvw5E6NkZvY2D8vSBO9I6ARgOHRrSbG8hYCSvbUuhl7EwQMNza3/LwEe8jCNl7L/5eDqvuuJkE0OQW2prM/PDWMVJvjaDmAThrp+0NX6qweUrU66ry9i6Y+LDBPwUwCw36/YLZh4F4ZeKrQfsbFpf+NprO7yOKVWlbQKwMxQqGYdqIaYsAF/Jb2v6oZfxbJ1bcx1kgxhHMbDy5bam004EEu78W0KhrFlsrQWmOkkzbU+15MO4Nr+98TtuVrknmbyCia5/Y5hfroEB7HnSQKtfMOOv+ZFpG+UpA3PSslXaVlGRFw1ktmBPhq1Ih3JbWtq8imcoVH0+g+71qv50oECP57Q2nm5kU5+KimlDwcwN4Dgfz5SG3beY6aKC9sZ7XKsPUINza88n0nfuuRjxKR91FYwuKNzBtn4kGt71SklfnyQEcfLRt+qO/rq6GdbYeBMYRcDuZ8BzW5ryvLrntHVObR0Ub/Si7jTy6D9am844z0TnX1w8fWjazJchCzOlHAV7eW5r61Nu1Tc0p+adTPwAaPceEUnFT0ksowOEXyvgn4EANs1oahr0w6TClUBg4fz50/x8CyOtEgCuq8vYOjr2MoHmvfEz4JqClqbrvYhnOBTKsaG6iCjbi/rTAYMfym9pPttEg7C1tnYWovwKCOUmYvMtPzXuLmDweIbCklnNza+7Ud9wKBTSsFYAkImjjuGnCepRpfQLGng9V6k+amyccLTGioppQyqrigJ4l9Z8EYGK86ZnHmriSSOnpE0CwIAaqq55CsBxb/65pag2p9H9xT0YsLZWVW8kokPdrjhdmOz8h0OhHJvUZgIVm4hN+AShP4OwaGZTU7/TVTFgDYVqrwHxtU7XlfYmaecYPE5Ma5jwIhG9rBiNNlMfBXnH6Pj4qKX1eHdp6aRPfNSPj9NgNJqpw+FsRK0ZGQqzNKOWFeoJfDyAYwCoN1W2U5FdmdvaOuLQOzQiLRIABmi4uuZ3AM5/y8+ZR/Nammd4Mfw/VF1zG4DPxPv3adSPx4UZq15uaTrexIS/Nzp/ks7fF0wd/IQtOhiod2OItq+ytsYK4u/EXON0XcJz2orSPL+sGnkgKbKoxIENVVf/iOitnT8AWMCPvej8h2tr38/McXf+QIpnbol+I4R1Lbk5J5zYknjnv7380HxbRRrVFJdaFbGL+es2cPAzsDI/N+fd5PAz/rx8eWCoo+MGMH8JQIqfuAIALMKpydD5A2lwOA5XV1/BRDdN9m+k1LLcLVvWuxnPzlCoJGxZXXjzcJEwhoAtOUSLTNzvG6qunk1KNTJzgYnYhD9o4J78pqaPOz1RbEdt7YIo80reM+FYpJ59k1cCfS6vufE2T4KJQ0qPAGytrTqHMXnnDwA5GRmvuBkPA2rIUk8RSefvkK6JHTuXUV9fwp0/Ly6ePrQLrwJc8JY0We69JDUCrs9vavqWkyN/DNBITc0XIsy37K1UpCZ66/9fn9uUPJ0/kMIJwMD86iNI0wP7/w1+2u3ZmSO1tdcQeN7Bf1PEioiGEIkuNPFMcEsolDU8GthAxG9/PEsa86RFhMtztzQ5ut/HltrazBHw/Qyc5WQ9CZEk1jgGfpjX1JR0u4CmZAIwML+yzGJ6/kBHOhP9zMWQsKO2dkGEdIObdSYuOXo7Zh4Nahw208CMW66ryxgKj68FknSyljTuk2Ocn9vY9Hsnq9heXT3PJjzPjDwn60lYcpzWSYMZt+Q3NX3F6zjikXIJQO/i4umBiYwNDA4c6ECPRvSTbsXEy5cHRro6ViZ84rneuCdBb0IUJRuHzWxO/DEuBqyh8OhTBJri8r4+JI372yjwaTmNLY87WcfQvJpPRxm3774B4GRNaSAJmp03EG7Pa2y6wusw4pVSCQAvXx4Y6W5/jnHQSVvbi1paHH/ud6/hzo5vQ3HiE4GkYXkbzfZxBc2t7YmWwwANz6v5HYGPMRGX2A93G3etid+R93rLv52qYAVgnTKv+ldgvsCpOtJO8rRz9+Vuaf5sMu9cmDIJAAM00tP2ByZaPIVfvs2tL21kYW2NjuhvuFGXpzw4BQjqooItzatNlDU0v+ZmYv6wibLEAbjVuBOFbeJFhZtbHFvdr6OiYtqM7IynGDgyiTotkSgGGHRL3pamK5K58wdSKAEYnl99A6Y48cZWB5ocaA4DaiSi/+ZGXZ5zuwFkfD/3dTObtowcWvNlzXy5NOIpY3smAodN3/xat1MV7KitLQwrewMDybeOv0gIE385//XmH3kdhwkpkQAMz6u9kEl/daq/PxIlVzbfGZ5f9RFQnDvGif0i5j/nvN7ydRNlDc+r+YBm/l8TZQnvMXNfIBhZMH1T85BTdQwdWr0oAl5DTBlO1SH8icHn5r/W8gev4zAl6a95huZXLQbRhin/AeGZvFebj3cwJABAd31ZdtbotG1gTokkyy8IeCmnpLmenkx8lb+hw2oWgvllE3EJX2iJWtMWF23atNOpCobn1ZzNiv/oVPkHlNSDzUlPs63fmd/YusrrQExK6s5pZNGcXDuC1RRDGkOgO5yL6D+yxrJ+hIM8iSBiQ0yDORk7jzXR+W8/tDw/wvoFiuXgcZo08IloyZ0+vpDWNo86VcHQ/JqvMPEPnCr/oHx0qKYTIoyQtg/PaWxr8ToW05I2AVhTXx/kseHVpJAVy99RNPKMUzHtNVRXPQeMz8gKcgYRRTN0YAm9lPhCP1tqazOjSq8jju3YcZw08PFqCwd3LaK1fY51/sOHVV3H4G86VX5KSMU2jvDMWPb4u8vWdjt2bHkpKRMABmh4bHgFI/b767PL2tvh8K7fBNz5tnNBGveEkLZPmf5aU8KTuhhQwxn6MQCV8p3EwL+Ne1s4uKuuxEBiOBkGaOiw6hsZSNpnvV2TYucTg6/Le7Xl2mSf6X8gSZkAjNRVXwHw2fv/jf0eiatNDB8fyNYFtXUMfWpSnQw+P7wZ/MO8za1PmShreEHNdQCfYKKstOLH45nQkWvtqjMxKjQZBmi4rup2YnzKifKFy6bezmkQnZH/SnPKP8GVdAnASF3NSRr6xgP/1n6+aeZfGQ9oH4rs3/q8P307PzbuezBhVd7Glik/4XEgQwtqTgclw5oMPv5C/ILRFnaw828A1PCC6nvA+IgT5QsPTOG0ImC9FQ2cOuv11wedD8h7SZUA9C2sKtbQcS/pqRWeNBjO24wcVnu4Jnupk3WkEwaP6kjmaSaG4HbWhUrC0A+biMt5SZdCuq0jStkLS15qdurKXw3VhR4A+INOlJ8+kiuRJeCqnE3NN6fykP++kiYB4Pr64PD40GoksJVuvp7ebDKmfWlL/8LJ8tMNkTqm8LXXdiRaDtfVZQyrXWvAsg1zCuiIcvYCpx71WwFYIwur/kbAqcYLT5tuZa/keMMErA8S3jNjY0uf17G4LWkSgKHw0O9IYW4CRWwn2PfZAAAgAElEQVSkjc5t/zu4cO5hIK53qvw0dFney81GntEftkb/AKZyRy9IkqOtS2oM7rF5umOdPwM0sij0f8wOdP5Asl0QpwMNwmdzXm65I52u+t8sKRKAoUVVnwbh3ETKIKK7TMUzGaXo1vQ8hBxAeCj3pZZbTRQ1tLDqAjDONFHWAUnj7rTtFnRd/kYHO//FVXcz46y0/C7TrO0iwq+j4YzLTIwwJjPfJwA7ls1ZELFxe6LlsM3/MBHPZAaWVZbBphPTsuEwjIG+oVHr3DwDTdKuZfPLJuywkf0CklYqNOxMYTsSOSzvtY5hp6oYWlx1MzE+5lT5vpc2bRetjXDkw8UvdzR5HYkf+DoB4MXF00fYet7EYm07Z0a2JF7K5AJ24GuenUCp0MC/SYB5+SGNjROJlsPnwhp+Lez4ok++l/wNuw4oLMrb2OHYxj7Di0MNDMhmUH5loo0j7iKyLszd0LTSQGkpw7cJAAM0jOwniDEr0bIINFj5fOeYibj21fGOimkYxeVOlD0lKdRoEdM3Zr3cstlEWSOvV91EhCoTZQmHHaCBt8HHztrg3Ja+w4urrwD4WqdPoxTL092VwJfDwOsEfDL3pdZn0vU+/4H4NgHYtqz6a8R8jImyNJzbvGPGWOC8VOqEjYrhdCPCSzdvaP6+iWoHF4eOBnCZibKEC/Zz/ijm83Nfal3tVLXDS0MfA/NNTpX/ZtJEuIxoLWn16ZyXGl/0OhQ/82UCMLSwajEzf89UeQqIe+2AA2GARkBGOq2UNPVWT4+RdUoDoBOtkuvqMrap0Ucl1U9yjOtmv9T6e6eKH1pa/T6Af3XQY1QOpGSiwXQLlP5x7vqWVq+DSQa+SwBaloey1AivZJMps7IdyQJ3LKk+BKSLnSg7ecX1xV1cuq5xwETt24KjNzEhZ0q/LI27T/Gfcza0XutU6dsXV823wVNbFEou3ZNBCzO+tW0b/6GqtWXc62CSia8SAAZoeDv+yAp5pgoEgNkzrS4j5e1Dk/1FaSH2FWuvSmtz1rUYmak/fMTcZWzz56ZetYlahVGEdTk1rR+i9c6kZz3LagujiK4/8FefRAdGmiaxBNrCZN8QjKi/puMCPqb4KgHYtrTqEwR+j7ECCSDGED3Zajwr3FRXl8Fq12dMl5tugkG8z8TkHK6vD27TQ48xpVCLmEJvZUoI2yMT00+gB2A7UXzHOyqmZU5ENhDTQbaBTqIPPolylUQRYzWYbqRo5InZmzqHvI4nFfgmARheGgqxxXcYL5joQeNlAijLGD0mkWWJk6mNcQqDvjBjtZnsfQRD3wK4wERZvpFGjTsA2OBjHFvl71xY25oCTzFQmm6fq+fibOsIWK+J7gwQ/2Mm8pto7dqI2cCELxKAlcsRwA487Ujhip9wqNwrE/r7dG+ECC25a1puM1HUrvq5pWHwN9P+M3WbySSW9UUF69pfNVjif4oGaLgp9DsCjnSifHEQUzsv28D0Byb7SdJqY05kejdtevPS7a3OxJbmfJEALN0Z+gEIlU6UHSG1znSZW2prM0HRs02X6ysOj1AELH0GGZj1DwBhYIWJckSMDCVcBLoz58V2x1Zs3H5E6FpifNip8sXUMHiUQKuZ6HnF9nrW1usBWN2vqdkjR8jVvSc8TwBGDp9Tz0BiV9MHMG6FO0yXWZAbPSblh/CdvZq+e+bq9ldMFDRy1NyTWNNxJsoSHiC0rJve8lmnih85MvRhreHYEwUE6tfg9QrcyESNGrqDONAbDESHohNqNJhJY5EJnhizwuFulL6lk6tfu9bGPqn2m+fD8H/OQlpbX28BQHFGX6AirKkvYtO06cFMALCigQylAoEo6+xw1LYINDuoWUUJs8miDCY9E7aVTYqnEyNL8+6nZBQwmxVN31NbMWtkEEBQb70YY432t8RIGAHRG2voM/Q2Yu4nBAaI9DA0hiOKhgMc3aowbdvWmeGdoSdbw6YSfmGOp4OmfHpt5raBaO+UH9uKtXzwaN4LbdNNlztyVOheZpxvuty0wBQe44ncsrXdowkXVV8f3Iat/U4dP8J52gpU5q9u7HSi7OFlVUtg8frES+KdTPQXpfEvVniViNsjwazBgmdf2yWdmkhmno4ADA9Ff01qksbb0NW1InrSTEn/wYAakeHEuDHZnyhbk3jnDwAjtPXzkM4/ebG+yKnOf6i+ejYr+zmK8RqHwaMg+g2BH1NW4OXtmOhyahlxIbzmWQIwcnTVacw8eUdqalyCYHwzmO1HV9eAdfyz/9Mad+X+u/1eIyXVl2WPKPzIRFmOSfXbRIlg+mvuGmfu+/O5sIZb7WcIlH3QXyZsZ833KIUHybLXz35eHi8T6cOTBKB3cfF0Zn4IDj+zrW0YGP57qyjs9yuZbh4XRXSOqSHTbSrjm0ACj2G6QQ6TSTEwPq4nznOq/G1tVT8n4oX7+/f/b+++4+Sqyv+Bf55zp8/sZjfZJKQnElBAKaIUpSRSE+mS0AJSlBaJIkXwi19XvxZAka8kVCkqIJJQfwhITUBEAiLlC0gLJCQk2ZQts2XqPc/vj5CYkO1z7j13Zp736/W8eLHZfc65Z2bOfeaWcwn0HoArw65+OPnyslVe9UOIoLNSAMTi0d8zOOJ1O47jvG86pyKcJ1/tBo4Zzw9ZvOwFE7la9xlfzwW+1ESuytPPqsPiW1gRHWniGpDuNH95/CwGf+vTP2fwG6TwYwrxwrrnPmrxom0hyo3vBUDzHuP2ZaJj/Wgr74RXm8y3eueRSQATAv3NLqC1iQJmmcrFBQr2oX+r+vkGsPQeJuCRusVLH/cid/qrkz7rFvXtm8aAKQ/SPy/m+ebhryxf6UWbQpQzXwsAnjY52tpS6N9DOAxo+Ps7RlcVCyXDOwV1B7tJEIsTpgfqXlz6oYlU7ftOHl4sFE4zkUv4jFB0ddiTu2fWTNkp5WY6Xvzkf59ToIsem7D0pZkeLSssRCXwtQBoaynMA6HWj7YYeMvEGvObc+AcFsgdbMAVHXe2sVyF/I+CWeWIvhDzScMWv582nZcB1ZbrfJoJT5LGhXUvLttQbC423ZIQlcW3AqB1rwlfZMJW5+a8QsRPmc/Kp8vOZ2AYuH34380cfl0zZacUch3nmcglfLdkyD8+WuBF4rZ9xn8tVKDDU4uXylPhhBgAXwqAhVMQQp4e9fkE9Usmk62ZslMK+Y4xJnNWg1Au+n1TuaL5ju9pr+uvoJ/iKVOs1TGmj8htVPfcR94870OICudLAbBbfvwFIB7h1dzd3axCYKMPFgnnOraTL/8Ddkfty++uM5HowykTYzrPPzGRq1fyGpvH9NDQxR++brsbQogteV4AtO87ebirC5d72UZ3c7bruGYPBzq8H7HsHQaiqN1LTOWqy+MEKuXxywE3oK/GZXaUwolGTrfdByHE1jwvAIpcWEAW9ptD3ZpWk/kIdLwv3w7LbHLvxV8b/rHiYxOJGKC04iu5csZmKwN6a5VTHUq4qnaRmaNAQgizPC0AWr46YSoB+3vZRo9Gv2NsoZH5M+BgFfYyla9X5TS594KUM8dUrs59Ju3M0A2VMjYV7VNFGofoZ3Y6IoToi2cFAO++e7iN1j5gZdJmypPB+3+nrhw3EqqCv372V7+HgF8f8uyy90w16xL/pIKOjFS2zT7vDL6mftEyo0fihBDmeFYAtCbW/IhAvtzzvxXiN02mCyvawWS+stXfVWYd57ummmw+8DNDOFc8Ur79lx9V1N5ftCmEGDRPCoD0lNENWtOPvMjdL0RGHwJERHuzfAXtFybuqJuy9FksMpQwX5iFgVxEIi9TMDBulCfrCRFsnhQAmsO/M/qkv4GmYv2WucYBAIcZzlexiOlCajTzxL9GQCmmXwzo278cKQgEl4o/t90HIUTvjBcA7QeM39Et8lFGkw5wUneJlppqmgFqI97TVL5Kl6fMnaZynTdl4h5gbec0kheq5ugEvz7s2ZXLbfdCCNE7owUAA9RahJXb/rboB2ljk0/bPuPr+lWAVM3k3hu6b8SitcYewKTAnq4f4btqOTpBdIHtLggh+ma0AGjZb8I0RbyjyZyD4XDI2CJATojHuP2Zuatlcu+NC2OHfdunTR7uZvL7y7j6yEQRy5R/hZYt+lRaen/a5EhDphiPopDKuE5tWNGQIvEwYh5ORCPBqGdglAKHNKnRxDoK0Egi1DCjAaAmgLu7tbeVidKk9WpSlGVGExjNWuFj5WIVO2p9DGgtOIX2mki8gx59P2dgK4WoCMYKAJ6CUBvxXabylcJRhXZTuVip7VDuK9D40H0Gd9T97SNjF1/qTOEsU7lEPxkothj8/m48/vTmKbwdgXYA8MU2YNTwTB4AkIcDxwE0eMOyjhsPF9KG5hkEAm/6OW/qF4/sudsMKPrP7xI25HYAgkYOAFwHbZk8WqeMBzPeUoSXNPj/mNTbDrvvZCKFVds83tRZ+ggIUT6MFQCtNOEUAgfifG2NU8yayuWy3o3K/WuoD913oH5KMHPx34ZiEvbuIhGDRoQdAdyovHjTGSpkibAjAzsSCMQMhkIsH0XrlPFFMP4GwuMO6X8w6zdrFq1c79VDjISwzUgBwDN2irSt77jWRC4T3vq4oQCYOQtARPsYSVThsppuN5WrLTR+ClyOmMonKoT3hWwIhKkAprpQACm0TRlfbAEeBdEDReU81zD0gyUmFxkTwiYjBUDr+vZziTjW7T9aqJ13nPFmEeaWAtq7540o8yMD5iwbsWjpamPZNF81oHv/hfAKIUTA4QAfHuYi2taPR8tUPOwQ3ULR8HM1j76/1nYXhRiskmfZD6dMjNUrtx3kz6OF+6PuqeVG9h68++7htro1eRO5KhkzTq9/evltJnKlp4xu0I4TrEm1og8AS6FVolZmXJ0nvnPE08s/kNMFopyUvNOuCxcvBlNgdv7EMPbksbb42pSpXJXM0e5DpnK5yjk8cLukwHXIJNlflaiOCD+JAj9JHziuuVXTla527xy26OMVtjsmRF9Kmtp4yvBUWyhm7Ip7M/iVuidXfNFEprZDxk5ml4w91KYy0dt1T35k7FkJrQeO+wDAJFP5qobsxwOFgbdYq4vrG1JP0II35SiiCKSSvrmnI7HvBW3iYZCxylsxjXZtf/sL2Ph+GgG/NJWr6YBJI4Gi7PwHw/b7VGyBgB3J0X9pa03rlgPGz4uE6PLkY8tW2e6XEJtTg/1DnjIxxkDgnvZFwEpTuTTRRFO5Bo2CHSGHnjC1qVGVP8r29kh4ENWMoYh4TsHVK1sPHPtw+oAx29vukhAbDfoIQDpa/BaYPLndtxQEMnY1umY9ieRq9N6kE48tM3f1P6sfBe39JAyQ1/QTNF0TTW89aOwrzM4Z9U8ue8V2j0R1G1QBwLvvHm7jtVcF8fi0JjZ2TQIxTZDJqxeEeWToTdB5yIRRBdZjTOQSYsB8ncpoNyL9r7YDxz3HSp1S9/iyD/1sXYiNBlUApBvWHk8I5kItxGzsghulsG0QSpwg9KE7mvhuU7ly0McoL4qtoA6eCBYLhT4T9gH0B60Hj7ubiM8d8tiKZv97IarZgK8B4EYoEM+zfl6xhw+scqg40G3qcVtB25nKVQrbw9xT1K8d+W9T2+gAczzpJ0kEJay/YYMbxzFofdshY7/DjYO/LkuIgRrwm61j8YQpAAKx5n93HybWXDCXn0cFYHIIZJDCYnr5ZSNjvfrgkUkQtre9TVaiitge6qAHQHPT/xj3/vpp460/UVVUhwGfAtDQc0HBPa7qKm1knW5uhEovLnE7gztMJdPMRlb+A4AEnF14wINVIXvPCtkMYcykEPObLYeOv6au5qPvy3MHhJcGVACkp4/ZnpkDXZ0qVmauAXhodwcjSnygUAVP7qTpKVO5XKWOG/j5/wquroJEhtlj3b/xFXhOun3s0S3T3X3rH1m1zOdOiSoxoFMADPVT68fJ+giGNnINwIrPNIVsb4sPxxwHrTY3eWlpGTbY8OR3Pt1ELuEB2+/Rig/uJTBOsbO0bfqYk/v/ggnRf/0+AtAyZWIdUDzOy86YQUYOmSU6YmFQ1kSq4BpsEcB4gRYtMlJodRw8cjgpkmcuiMGphiMUTH9sO3TswbU1K06VUwLCpH4XAE7SPaMcPmsKysiFaeFQV4S1XJDbPZpvLFU4vE+v/14ObzphT4lHssoGYVZbx5id+ODivvR4U6ft7ojK0K89HANKk24MyuHn3hRh5iJA5UYC84TDwNF4zlgq4lN7/QXrh2glJEoIg4hot7QT/qj58NHjzWYW1apfBUDb18fvRjB8mNarD5xiIx87CrnK+uQR0HCL4XdLGtxPMEBgmmZ7ewYdQvTF9HtOYajjqiXrvj7K2BM4RfXq17dcIvfHKJM18RUobiIPFbSCUx7b7C/K1z/5QdpEpvQhY+tBpT2R0ip5ewgbCKEwOW+0Th+3Z90jy/9puzuifPV5BGDtEQ01IDrcj86YwMxJE3koxHIEoJtg4r+QoTPzxQhX5+I/foaoTAxFil9KHz6+92tohOhFn9++oogeY+aguj8UKSMFAJyIMnRHoTcsXRxHTE+byhWG2mfgCwCJASmjz64YOIb+W+cRo7+Y/H8r5cmCYsD6LAAY9MtyuhSbydC1Cm5emz/tYTCfpYmdQvpfpnIx8TdM5RJlqHymlUAravVi5qiJ28UfWLrUdl9Eeem1AOg6ZszYgsuj/OqMCQpcYyJPJys3rEzPUOU/4ym38IGJPNwIlf4X72Uil/CboepTjk6YQQjldOHN9mnbTKx5dPVa290R5aPXAqCocdxWH9KA78PYUAEQ0znXdQL5xGOr3v54XDOwpuQ8Ha+NbJAdQLkK+CRgShltJgEJHQ69xtMmT6JH38/Z7o8oDz0WAAxQGvjhVv8Q+EmbjDypkJOOC3PPFawMjKYvGXoCIEA7WHsvldHELiwK/Fz3aTwqHel6gIHppi7UFZWtx7sA2g6fMBGEodavYh5gMGDkCIBGSJbc/DTCIlOpNId2NpVrwALwPpWQKCl6RIe2HTn64t5+Q4iNeiwAKFQoywdQEGGIiTy1sULO+oc8YEHEL5c4rP9B2MP29gQ2hOhLr59TurztyLF72uyeKA/dngJggNIKF5TlQSQiMxctZhsKoFYjqbZQjmP6iaLG26ZyMWEqlfFYeEqKAFEiJv0kT5k4nBYtrfAnmolSdHsEYP2MsaPBZs6l+44x2UyiN705BWD722UJEVbOhyaGgBuhCDzG9vZIlBAi0AiUaq8v/NF2P0SwdVsAOJoOsT7BDDo4wo39e8ZBrxZA298WC9ELLrqr+z+APWtePFQe/1vubL9PJfoMJsxoP3bslB5fQ1H1uj0F4EB/1++OmLR00cQIUNqhLwK4jbmLiBKm+lUWeikCamL1aWBlyU2EEomR1M25EDkjIIyQN9Imrqsf5mmTh8qtgaI7WxUAa2YMT4G5myu0+/h6GCD1o3UcQMnnvpRD7zJjVwNdqgwL3jRyC6AD9zOatj5I0+93mEzwojeWp6ogvT2JKNGWyP4MwEW2+yKCZ6sCIE6RL3e/PrsPb2tDTUQLxRoALSUnYv43IAXAJ5rJ0CvkAjt2dwSg3wY9wZdPESvKV5/vMp8rBAJf2HHCiF+n7lrT5G/LIui2KgAY+jhrE6WhZl3QUAAflZqHQR9CLlX/BP2fsUwOPmvna1L5FLGiglkoYHU+fBeArw06gahIWxcATCcbfwaO77jBRBYivYw/PRjVOsETv2cqFWuaVP7vsR5U6naJACjpqNnUjhljv5BasMJYIS/K3xYFQPqUMcOQ5bK/6M1lM2sBEGHZVh+5ap3gGUtMpSLF21XvQFpWrQWsgIa+CcDetvshgmOLAkDleHddAfOyIj3eRB5mXg5VRgPi4eTOoI+NJSOaIDsiS8ro7SyM2yt93Jjta+/++F3bHRHBsEUBoIEZtjpiEpP6nJE8IbUG2kQmn3g4uRMZuKgSAM+A0w4o2RGJHklx6B3mGyDXAohPbFEAMHBiJZybJfD+JvLUFOvT7Y6R/V7ZI3LbTeRZgbGRIWVVVQnfVcAcFGBTu2aMHZNYsMLcET1RtjbdjL3+pKG1pJAY8IpTAcTAOBOrAdKCN/Mg2VsBgKuVkQKgFojbXiFNQmLQUQGKpM+z3QcRDJt2klGOf2ZQGWx/IHuKN4ebupjxJevbEoBQUeoofSgBHXZrbG9LtyFEf9h+n5qJC/jM3cPGx0aUnU2nABjYu5ImwqzjNAAofafFWARC1T9aM+Siy1CeBJf+pAbzKui9L6pUf6+dIIQ6O1Z+DcBjXnZHBN9mBYA+zGZHTCsSJgBYWmoecvQ/mW3vHWy3D7TrgpFlgCnkhJjlrMqgyMVxojcDmCY0qyshBUDVCwEAA9QOHByA/Yw5ij4H4JnS8/Db8PreyD4ndvszfzwcLprIU2Q3EsQDAGWhrD+fZd35CsQ7t5w6sa7+90tbbfdE2LPhCMDpDSnkun8yYLlixu4m8rhu9GNFRr789qwM5kZddIx8bY+QChflusrKUwZFrNhSqJA9EMA9tvsh7AkBQHsxOgpUcZPyV00kGfKnj1rbTx6lwaXfVVDOdL7dyBvE1W60rBZXEv0jL2nZ0UyXQAqAqqYAgDW2s90RD+zIBqYlAhiM5010qJzVI+SayEOOigTgKmiJaguxFSLszjOGp2z3Q9iz4Vst8e7WP6AeRPNJQ2vMDBP9xfa2WI/6sJEjAFpR1JP+CdEb25+fgEZHzDFyqlSUpxAAKPA+1i9070kJpw4VxScBeK3kPoT4eRj5/ivIdWPsxSmAoL5/hegPS5dIaE3HwMTF0qIsbbgLgGj/wF6kU8LE7lBxdxgoAIj47a0eC1xl1rYUjFwDwQ5VXykV0I+WCBBL0wsRTgHwXTutC9sUNyIE4go9L0uHmhik1G2r1wEo9thOFXAirpkCAJw1kaesWP8cSEj0GHWtJ46vh6hKoeb3hiYiZXQD4EC+TDHU1020SQCniR4F+PCefqHSOZxygOaS8yhGVyBXAqx2cpSiajkRvQuARbb7IfwXSjixuqLxWwC92yMOJDOBE6tPHpnc5vamzlLbVdD3MFH3BUCQGZrYVcjMEQDHcXJuFa8EGNj9bBUUsaIH7O4DKQCqUkgzjzCfNjjTXMJxxgF4u9Q8mosvEJXRoZKNDE3sNcpMAaCRz4IcE6l8YH6vKPvZQQrOlFJxGPx1AD+z3Q/hv5Ab0mOogqclBXc3GCgA3o2t+/CzhW0M9Kg8raOwkaeHcSiUg/vJbB74ST3wHawelTtFeazvgSPQXgwQyRu+6ihyaLRnF5gEAh1oIsuXbkIBwHMmcpWjsJuLm8jjFtz8pv+xfwGUhETpEWjcr2g9deIQa10U1ihoeHAK4BO2P5gEsMJRxjZH4Wbb22MrQkQJE2MYCYdztrel3yFEf9h+nxqIsO4ab35gRNCFQB4WAMEwdP1JQ2uH3dmcLjWRA1pUrNKjZCqEpIk8RcXZsnnshBQBotz1c7rSIZoI4HUPeyICSIFQ8Se2w5HQ503kiY1btRzUy3oAFRxaO7UmxrAmqTptb0tFhRC96ef7SBFtb62PwhrFwDjrk5jHoUJ0mInBokZogG6pxomdSZs5R7hiRb7vXxL9FoDPl0T5hwZ2hqg6SqHiTwEAoDNMZdJa32YqV68CMClsGWxktTBaABcK2v72SPgSolzsabsDwn8hBmKV/kFlYASf3lBDt65rLzVXbUfDKx116010q7wQjTaWi/lDgLY1lk8EV4XPLZWCADkFUIVCUOj+/u4Ku9YtE1afB/CPUvPQgjfz6W9v8zABRpYZLhfM+IypXET0DgNSAAj7upvnGG8BvIKJVoGxWjnUtPk/EyPJ4BoG4sSYyIxtQTQZ4IhPvfYEz4BDC+S5p9UkBOhQt2V6hVXuGnQ4DBQAAKAcPZc1BbgAMP/iKYPfEBhY4sv7q8KKWGEQ43UQ/z8mvARy3i0is+oDtHR9st7H4FI2Qq37qCGZCkXqmYpjXFd9EYT9mXgaMaVMdt8T20wOAe9LAVBFQoCKgMpsphxcd88A8EMTzXcp/ntcB7lCMv96MvizxnKRXubL6pNBfolEHwy+eAQNxr1MfGeuEHmpoX15kxffdDdcJLyuHUA7gI+w4QvHtQDA54+Nd3QVJzGwpwKOZcb0PhP6PS13tkYA5HxuVVgUAnH5LXA/iLmBgRFrT2+oGW7gOoAR163taD9rm1cA3q3UXOWD6owtF+pgCcplLQAvlVnd7a/SBocIawD6lePyvbGxTcs27JztoatXZAC89UncxjPgtNWMnOAoHAiFi9HdKTG/C9hkKIYNxYuoEiEo7gBTne2O+CEWCe0OQ0+9Iod/xRp/6vYfK3Rif2sGwliAkm/jU8AHFTpEAyNHKMxiyirin2fd0O+H3fzxCtvd6c2GIxBNHwC4CcBN6dljhql8YTor+iGAz9noUzanjCz3LcpHCEzrAVRFAQDms2GoANAUepxQ7P4fK3RiH1VfHwdaSi4AtBtaSUpONQZe2VRp/JxmurB29OqXbH/TH6zaaz9eD+B2ALe3njO+3tG5g0G4DAwji5j1R85xy+9osCgJpc8Z+SIBX7bdEV8QdGpEU5Qae9pzD0zHOSNf4HK9f3YQk3sohM/E5zV9WHLTZyLcoUbKgkCiRHSd0sWfJW9at8p2T7zSde7oca52LwQwx+u2wmGeHJu7ZonX7YjgUAS02O6EbxiqddWInQxmvMxgLn8NYlGXguZRRpq+CQUQdVlfpEaiTINuoChvU3PD6tmVvPMHgMR1K5fX3ND03dT6hqh29XQCLfOqrVyelVe5RTCFQKiqVW3CDk4E8JqJXEm36ZmO8EgNRlV8cBiYBOB5E7lI8d+ZcVB3jQjRg7t1PnzukFtWNNvuiN9owZt5AI8yMKnznBFfYNCvABxstA2HyWQ+EXwKhCbfKvcAYKjvsKHe0IZ7hq81kascKCJjFye5zBzSuC4AACAASURBVC90+w/Wv11KBDBeD4d4cs31TcdX485/cwRw6vo1r9dc33RIOMSTATxjLDeHHVO5RHlQIHzgW2v2JxKAOJGdPcrYs6+1o+fa3yZ/ghi7mBo3BX7d9vYMOoQ/CBpQZ6eubdpVzk1vLTZ3zZKa65umuC5PBuGZUt/XGsVBL4IkypNS4OVEjGAEfAmX9FGmBrD2mrXvE9BUFfsYMnjBo1ZvG8vlN9sFSBUEEZ5IZdy6mutW3UgkJ4Z6U3fTmiU11zVNIeZdAHplsBNM0Ylk/emxCIoQEa1mDsrny69+0AUAfmskE8CdCj9k5ltM5NssbxCN4EYoE7daZfPusniiUi+dsPzqBeXjjEF0haBJY1bquqa7vOhPJUtdv+Z1AF9Mf2fEV4npAQANPf5yN2/RCFxZBbDKKOXqdbarff+Dx6UvGN3zh2OAcrn8vb70OwBaVtbXmMgz/NZ17SCq0FsB2W5QcGIgRwAV4UNyeLTs/EtTO2/N31PDm0YB/OOBjH8hl6vQz6PoicpTpHpuA9wMFQrHmco19KaWNjA/bCpfj6wXTkAiHt/G3Abpx2xvj4TP0SO669/5ps+mfrumqbffEv1DjSjWXLvmp0nNo5j7d+dOFnG5BqDKqHcLH6etTwoWgogaTd0NAAAa4Qttb5MfkYe7nakxI9CjpnKJMtHNe0oRn5ea13RiKU/iE92j69aurrl2zVdBOIQJHb19tkdhpYx/lVFfugkFRu9vDHO7yQBhNKTnDJ9sKl3tvJVvY8ODPiqaA72rsWSkX7Rd0EhYDAXNjpqamLt2HoSnUnPXPL4atQ0gvq3HX7rJzAqponwoACDCc33+pu3JwoNwCOcOaLT6wErNtr1NXgeDvmpqvAqFxAe+b4MIBqZsUWP7mv9dvch2V6rFdnPfz6WuWXs6QnQQFOW3+FworKNAXT4q/KAAgAkv2N6xWJnYieZwI4w9ACNVt/pZABW+UAntZyrTkOs/agX5/PAW2+9TCTDQQXF32zq5t9+K1NVNTyYLehjACzf9kM2sjirKiwIAxfSK7Y6UbHBFg8q2DN/LWBc23B53vu0J1tvgBJ83OWpkvAAm4Cn72xSgqHSEddqJTEheuW6l7a5UM7pubUfymrUHKMVzQAAB79nuk/DfhgIgjP+zPvFZCu3QfxsYx02S9Wv+DEKxkif2bKTT2J0ArlZyy9fmAvCZ8CqYOM2u2nHI1dW9nG9QEMCJ/107V+niOCb8w3Z/hP8UAMRyNVVbjTPjID53eMpUPmpEngg/3/ofKifybnHHkgfqE9rhkpcwlfAxBokZHXCdyTVzV68dfBbhhcTc5hWp3675o+1+CP9tuAhw7vs5EDfZXjTEVnTG+XCTg1rkyDW2t2lggQFN7iHCV0yN1StDmj4ylUv4YHCFQzGvizvIzl+IYNm0FisR32+zI1ZpusrkmgBDrl7RTGX1lEDGQFaQY4XDTLU8tRFFJn7OfhEk4VVQSO85bG7zClPvGSGEGZsVAOpx64cXbYXCqM6Lhht70h0AFCL5H1nfLq8C2JUbYWwhf6Xw+z7aE2VKEX0j+at1/7LdDyHE1v4zibuuvUVZgkDzr02mq7u8rQWgq03mDJJ029g6U7mKhGd7/QXbBY/EIIOvTFy15r7uXlIhhH2bCoArh6xfBb/vyd7I+kQFgOiA9gtHjjC5Wbl8sdH+dnkUKJpbRTG59kPr21PyeIjNMeGZ5K/XXWK7H0KInm0qABoboYlwn/WJ1GKQ0t8rbTi3NGxuc5oIPzOZMyicUNHYgkDUiCJzP1ajDLIAvH+DE9ycSiUPJZKV5YQIsi3O42oXd9vqSED84L3zYGSRm40SyfAvoaDtT8qGA+pYk+MEwlzr21Sp4bMwh/alxqVZ/1sWQgzEFgWAivLfrU9WdidKNSY2/KhBjmW3qHFlF4DLKmmC34D3NHkhIHLOQmO5xJZ8/AxphUuiV62u+IdiCVEJtpjAE79YtxrMrbY6EwSa8Fs2vFtNJpJXAx4+actSwdSVbxhpahNq5q5eC8Ia60WgRCnxSs0Va6/s5uUVQgTQFgUAAUyO+m0AJhKbMbLrkoYvDnpEu0GNS7Pk0JwAbJvRYK2+YHKcGLjGZD7hsxxNk/P+QpSPrQ7hau3ePaCFPmA7zGNWxhfxSby/5iYAa0zntUrjYJPp2NH32i5qJAYXTHx26rdrmrp9YYUQgUSf/gHPgNM1uSEPNnh+twzpgt6p5qpmo+cyMz8Yvo8m/pvJnJZ9nLx83VhTyXgGnE4b7z3r31m3+hiWF8YbySvW7izf/oUoL1tNtLQALhi32v5GYSwGOzAh53eD/+vuxa9Y+xyjj0VvysuY1ReOTJpKRgvgQuPPvr9NyHZwWUdI4WjZ+QtRfrr9psXKnet3Rzwz2L2C4q9kL274rOnuKIdPtF4UGYx4yNyTAQHAUbjJ9jYFLoKMcGPs8rXv2+6GEGLgui0AkpGWN6Coy/rEZzmKIdw04BHtQ+Ln6z8mwlVlMbn3Qwg03WS+WHSdPJf80wLwWeg2FPKJbOx8LzddCOGdbgsAaoSG5iv87kzQELBf20XDtzOdN96+7r8Aym5spKxD4QyTY0ONyBNwt/Xtkug7oM+hq1dkenothRDB1uPFVkq7v7c+wQQgnDDfOJAB7Q+ai5wGvml723qf3PttHBu8DgAACuCKfYhS5eDWFyPNf7TdCyHE4PVYAMSvaPmIQEv87EwQEWFq62UjtjWdN/XztQuY8a7pvMYMoFhIRwtG1wOoja5/uSKXT66kAM2a2ujh4lZCCM/1ersVE3/P+kQTgAjBva6/A9pfRGBHOYfa3jYT4YBOMDo2jSiC+7gYUNi0KvHzdY/Y7oQQojS9FgCJ0Lq/QiFvZccSIAQ6OHuZ+TsC4j9r+hCgy0zn9RuROpPZ7KvG7F7fe6MStsJx1Gly258Q5a/XAuCTb2I/96szWzYerHCJ7zP9jAAASLyz9nIQltvevtKCY5mfDB1jclySkZY3QJS1v20lRuVZF1VrnrDdCSFE6fpccc11ctcNaGngig3smP3vYV8z/QLQArjacafbX1K5tGWYyVWHGhyWDXeiQP/GZE4rbBcghoMUn7nhtRFClLs+C4DaxvZ1AB7yoS+Bp4nn83w4pvPWNLa8AeA625P7wOM/BZJW+rumx4Ucvt5+4VehMZiCjzgfV+tlLhCiQvRrzfWCCsnFgAQANLTrrYZv92fMBirhrD8fxK3m+uozps+vvbihxmTKRGPzCgDybHkvDOI9xUz/RXLlvxAVo18FQF1j0wdMeMrrzpQHvtb0fe8ANiyAo2FuVT0LBVIiganG+r+Jvth64ScBEJBztPGVMYUQ9vT7qWthcMU9z35QAaiuVNGTVRIT/9P8DyK+y/o2Dnps+FLjYzKm5XGQnHO2jYE/DWtsTtvuhxDCnH4XANHG5rdA/OoAdpSVbHZnY8NoLxLH1zefBnCzF7l9sNeaxuEpkwnpLBQY/FvrxU2VR9jhX/Tj5RJClJEBPXddM5/c718OwKTlZTCxJ8ugblgmmPe3vX2DjSQVp5oekwL0Nb5vi9gMr4v8d7NciyFEhRlQAVDT2PIGCE/Y3skEYYIn4IDMz+r3KT3T1jaMM//Yi9yeY3WJ6ZT1ja1LCfSe6by9sv3+DFSoy+jT930KIcregAoAACDFRp/+Zo2BiVFreogbEfGiewnd/DMoft3+5D/AUPhK8w/qh5geD4Z7gfVtC1L4qBApzPe3RSGEHwZcACQua14ORTdbnwADEVTXGRr2q4GOYX9QI7TrFL4GLr8L4OI16ijTORPc8ig2PkJZ+PceV/xq3aVtLX5tlhDCPwMuAAAgXyxeZH8VulLDDGLMyTYOn2ws4WZqf9i+nhwca7/QGVhoD5aPpkYUWeFS29tWbUFEP+3nSySEKDODKgDqG1tbiXA+EeB1eDe5mVtVTYf0X7lxcGPZl8Rl6+8H8QLrK8cNbAW5MS2NdRNNj0Uy6vzOfuEYlPBHR1HJuv9CVKhB77Ti2zfPZaDJZGe6E4AvQX0GwNt2hRrO9GgIkKgdejKBm21vJwH9LtyiDp1tehzooqZOAL/zo/AMfhHrQ7GnePGIxrUdpl9HIUQwDLoAoJlwSdGR9vdIwQgifX36FzXDBjuevaE57+dUJLyH7W0cWND53IiQ8bFw8dMe2wwo6y/FYINxtRfjIYQIhpIOWyd+uH4xAw/7NiMFXEiHH/Aqd+ziNUuI1Syv8htHiOTCQ6eaTrvh+QD0TA9tShiMYrEgy38LUcFKPm+dcPgkwKcHhARgUuw1FPbp/EW9ufX8PyV+2bo7ycFt1rezn8EETx7ny0qdb3vbSooywMCqT54EKoSoUCUXAHRJSxuAE6xPqkEIAMR0//rGobUlDWovXsg2nwmmd73KbxIDn8/8rG6C6byJS9e+SqAlpvP6xvb7tB9B4N96NwBCiCAwcuV64ofN90CeFrhh8lSIxGN4iD36rje1EcW4Ku4FIG97J9Gf0Mq5yPQYEMCAe4btbavYAOACD/f7BRFClCVjt67Fo/pYANr65BWEAPbrumLo6aWNaM/o0rYWKEwdzMTuNyKezY0TY6bzxi5tfRbActN5BQACUoWWsjjKJIQYPGMFAJ3f2grgeFP5yh0xbu66YuhYr/InLml+npgvG9AfWSqIuuLpkwa/pT1sCoEJdKr1Yq8yYzE1Ij+gF0QIUXaMLl6TuLR5AYgfCMAEFoggoqd5PpySB7YHsUtafsEKj9vezj6D6Tc8w/w4xC5Zv5AZq0znrXZM+J3tPgghvGd89bp4fNjxUHrdIFeQq6hg1ttlPqj37DnqROB/v998GBjv2t7W3oJI1+a+PPQAL7bfcXCq9QKnwsKBem6AL4UQogyRF0lzvx66o6v5TS9ylyN2+IvJC1pf8Sz/5fVDMg6tAHPKqzZKRcCHsYtbtiXD69gyg7qurP+YCKNM5u25QV9asSoeb4nRHORs90MI4S1P1q+PXtj8FqAvsv1NZkDhIdJ42osL4Tblv6SlTWn1Ja/ym8DApMKVdbuYzksEhsK3TeftucHKDiJ8KDt/IaqDJwUAAMQvaruKiMrnQSKeFhdUl0mm7/Sy+7EfrHuHCUfY3oH0FkXCTV5se6Kz5VEmrLK9fdbDBKY7DGUSQgScZwUAETjW0XwYEz62PjEGIviYzqvqZ5c8sL1IXtTyEAE/9LKN0tCXc78euqPxrI3QiljuQDFSRKiFfndbCGGHZwUAAFAj8nCcL4OhvWynXBBjXu43Q3fyso34RS2/ZOI/2C94uo8i+BZPtvvC1mdBeN329pV76AjeHsTwCyHKkKcFAAAkz1+3igmH2Z7YghIu48X113i3VDAAJBa3ngHil3zbrgEgYK/0r4d9rqQN7IGj6EQv8laTRNu6tbb7IITwh+cFAAAkL2x5lED/40dbwceJeJEf50YPT78sgBtPJaYwfLpHfoAFQ4j0jV50I/r95jeJ6AnbRV65BhGWUaNPD/YSQljnSwEAALELmn8MhQW2J7lABLBnZ83QK0oc0l7RWSu7EuR+Hoo6rG/v1rFf7hrz1wIAAIdxejfjLfrBBT1ouw9CCP/4VgAQwPExLSdAYbHhnWlZUsQXZn8z9GAv26Dvp5sZantw8JZ1dYvsyV0RiTnNK5g/tZKd/YKnLEIpfmFgoy2EKGe+FQAAQDPhxnVyKkM3GVtp7tMrDnoWMB4a/ChfO3wbL8c8ef66VRq8h+2dSzexa9dvh37Fi21OKL44ANs3sAgAhvOO7T4IIfzjawEAAPT9FRlddHeGoqz1SXdAMcjCoffiRWXyhRf5RoRNj/PmUhe0vqagD7K9JPBWofWfmc3v/uj81lYQLrG+fYEqZNFnaCcrT1cUoor4XgAAQM1FHWuU1jsRQ1vfr3sd1GeM68rW3e/FjnBzsfPbniTCN+0PyBYxruvq+sO82N54a8tVILQGYBsDEn0XCe9EO1pLHXchRPnwdKfTl45r6nZxGK/a7ENQEOOq2PdaL/S6ncxv6y8FeMsHFLHXrfaG0rF4SwOdhYLpzJmrh3wNRE+ZzluZqCv+vZak7V4IIfxj5QjARqk5ra/Bwf42+xAUTLggc03d6V63E/9uyy8JmLvFD+1+M63N5Oq/78m2nt/2NBO/YP/bd/CDiV8a/EgLIcqR1QIAAOLfaX1WKRxtewIMRAC3eHVh3Oai3239LhHfbH17PwkCX87XDan3ZGNDzkxP8lYaxr9sd0EI4S/rBQAARM9rfUAB37DdjyAg6L9lrq+b6G0b4Oh5bWeC8Acv2xmITJE86UtidvNyBq62XeQEPYjwfyUMsxCiDAWiAACA6JzW+xg8w/ZEaD0UFBXxytorGmpKH9WeEYFj32k9jYB7rG/zhh3Q4bl53jwnIV5b90PP7jqpFIQPbHdBCOGvwBQAAJCY03YPE46xvTOyPcEzUJdKuC/+0+PbA4nA0ebW45jwkJft9BezfsiLJZLptKVZRXyS6bwbkldGkHL9WTZaCBEYgSoAACDxndb7ifWhtvuxibVJmT+3U2HIA17fHkiN0PF1rUcBeNj2TogJk7oahnzLi+2MzG69H8RmV6Esl+iHgsNyC6AQVSZwBQAAxM5LP0aKD7I+cVoPmp67vu43pY9o76gROjay9UhmPON1W31RTNfz1XV1pvMSwC5FjjKdtyz0472W6kh22uugEMKGQBYAABA7t+1Jl2gXgIvWV2mzGMz8vcx1tZeZGNPe0Ey48ZGtB4D4Wf+WV+4mFKtshO/2YhtTs9euZsKF9gu7AMaEpmxJgyuEKDtkuwN9yd44ZFvWeAOMmO2+2ETg78TOTV/rdTvciFB2RO1CgPYpLVGpPdH7xme3P1dqlk/jRqjs8CEfAJhgOnc5i89uC/xcIIQwK7BHADaKndW2xM0VJ4LQbLsvNjFoXuZ67xcKokYUYw3pKWA8UVqiUsN5mK+ZHC2pD911qxFawZ1m/Rt3gILBTaWOqxCi/AS+AACA1Pc6m2IFZxIpvGd7srQa4Fs6r6udVvqI9o5mwo2tbTuUQQ/Z216uzYXXzvNi+6KzO/5N4Ll9/2Z1UEQrbPdBCOG/sigAAIDmNKffoLadQPhr3zvKyqWIHincULO31+1QI3R8TetRzFjgdVs9YeBbndcN2d2L3NE16QsJJA8LIkArlgJAiCpUdrtLZlDuxtp5DDrXdl9sUux+IXpOxxtet8MMyt5Q9wcQn+x1Wz30YF2M0qO9eFhQ4YaavYtQz5vOa4x/D2n6XfyctjN9a00IEQhlcwRgIyJw7Oz0bFI4x/Y3p5KiRBrOa9l5NduXnql3G8a79ZvEuNHrtnroQUNOD/HkcH347PZ/EPg6L3Ib4dt7kVb7tEVCiAApuwJgo9iZbTcAel8ARdt9GZRSJ20FxRH1WueNDaM87yqBo+e0nUPE/2ujWGKFs/K/q93Li22Lrk6fD+J11gtCi8EKbSbGUghRXsq2AACA+Fntz8VUdCwTPrY9iVoJIKao+H7X9cPGGBjOXhHAsbPS5wPU6HVb3XFd9QT/ZmzcdF5qRN5hdaDpvOVEgbts90EI4b+yLgAAgL69pinObZPA9LDtvtjBCXKKH2SvG/IZP1qLn9X6Ezh0qu/FjuJUpqbDkwWCIme3vqaBX1gv6CwFOyQFgBBVqOwLAACgs1CIndl6OIh/YnUVu60CfkWEw/h39sYh2/ox3vFvtf6BlD7C7x0VgQ/vuqXuaC+2KbGq7ccMfOxF7qBjZlkFUIgqRLY7YFr+prpdXaX/UZUrBzK0UnqX6Le8vzsA+GSsSb8EIORHewAAhtZOcVzyjK6VplNnb6rZnoneMZ036BT4qOi32x+03Q8hhL8q4gjA5iJntr6ay9NoInrd9qFV30NBaVav5W5K7WRmNHsXObP1VSLsAIWsn9vocOg5Xmi+6Iid2f4uCD8quY9lpsiUt90HIYT/Kq4AAIC6c9taoivadlOKf0kEGAuUQRAUk3o9f3Pdbp4N8GZi30q/72p3IoHX+bVfZGBSdkntzQZTbhJbkf4Fg14pKYn1N8HAwnHILWl7hRBlqQy/rwxM5vdDDiCXHwEQsd0Xv2nGnolvpV/0o6311wytTSaLrwKY5Ed7AEBQx0TPaL3fdF6+c0h9Lstr4OepDT99eoEhhUNjp6cfs9IXIYQ1FXkEYHPxU9ueyig1kgkv2P6m5UtsRhEWF35f89XSRrB/hs1pTkc70zsw4NvKesz6ns5bEqNN56WT2lqgaLrpvIHh1aEZIURZqfgCAADqT2ttjZ2e/ooiOsd2Xzz3qcnd1fRc161DjvWl6TnIxZan92Xgdl+KHQWlKPT8P29E2PS2xE5rewLADdYLOl/GkfxbdFgIERhVUQAAAAEcOa3tBiiazMRVtXCQIl6Qva32e6bGsjfUCB0/I30Kgy7bqi9etAdM2ClUe4sXuaOfSZ/HwDIvcgeKZo9eHSFEkFVNAbBR7NS2JW/m2ycBCO4a8N64OntrzW+YvdoVbyl+etvPCeobW/zQowKHFE724igHTUUxFgntY7uA8zzAxo+gCCGCr6or//wf6nZj5icZPNR2X3xDWBA9JX08EbQfzeVvr9tFu/pF+HARJrOaFD+tdanpvJlba2cR4XbTeYNCg2YmTmuz9thnIYQdVXcEYHORb7a+Ekm0jQJwg+2++IYxI/eHmmd4vj93RURObn2tyO4EgNd43ZYifpn/ODJpOm/89PQdUFhg/Zu6RxFyuPoWzRJCVHcBAAA0E/nYqelzSOkdQXqN/eWDfVmieJ9cpuYtvmNorR9jnDqtc/XaRPtEAl7ycruY9NA8Z57j+XBMb0P0w/SJRHjP9s7aC1qT8YcsCSGCr+oLgI2ip3T8O5rtGAvCVZUysfdh25wuLOn4XXKkH42Nm4lMJJHem0B3edkOg3fNZmqMXxRIjShGwu6+YNYbbqS3FF4UT4oTpsdLCBF8UgBshs5CIXZK+4XQajIY7/rbuIUAGkJRtTR7e81nfdhC0Ey40W+mTwTR973cLiJ8M/vH1Gzj/T+xswmOOtT6UQDDwdDGT5sIIYJPCoBuxE5tWxI9pf1zrOhkANr2BO1xxAC8nbmjdpaxAexD7JT01dqlvUEoetcKzSv8qWZv01ljJ7c9wcy/MJ3XJgINs90HIYT/pADoARE4Pit9Ry5PwwF+3HZ/vEbMt+duTzXyhrLAc4nT0i+4IXcCEzd5Vdy4Gs/ybcltTPc99mHHj4hocQCKNyPBYF9OAwkhgsWXyb4S5O+s29Xl4iMEGmW7L54ifiIa7jiMZsKXJ8TxbYjlwjWPAdiv9GTd/YibYsWOiXQajD7znv84MplTmZVg9uVCSm/xE7GTOw623QshhL/kCEA/RU5qfTUW6RinmXxZUc8apoPyhZo3+M4h9X40R6chG32/fSpAc0tPtnUQ0chcqOYJbjT7XqdTmjoL0Hvb/vZuJmiMybERQpQHOQIwCK13DqmPQd8G4EjbffEOdRHpPaIndrzpV4uZO2pnEbEnC+4w+E+xkzpmUbfHCQYv96chM5n13f3sREBRa2xW2peCTwgRHFIAlKDjT/U7h1BcAMb2tvviFWJ1fHRWW/92cAZkb6/5LBS9AHCd6dxE+GX0xPYfms6bvbPmVwAuNJ3XT7GT2mUuEKLKyIe+RAxQ9q66/Yn1/V7stAKB6droe+k51OjP8sE8H/FcseavMHFdwFbJ+bzYSR3zzKYE5e5KPQbQQSbz+ikaag/RTLi2+yGE8I9cA1AiAjh+Quui6Kj0cCh9PsC6hBX6zIeRjeTZuc+mHudHEDWUsffmZiJz+bvtUwFcaT45ze28s3a62ZTg5es6DmfwcpN5fRUf7ctrK4QIDjkCYBg/2FCTy2R/BcZZtvvigTXsFPeKz8x+6FeD2buTh8ClR0Bmi1VFvGvk+M7XTOZsn58aHnaxAj48+Mi0KNNwOrF9ne1+CCH8I0cADKMj17XHju84O+qoYaRwl/0rvI3GCNKhD7J/TvlW3MSO63ysCB7N4GUm82rQP/ne+FiTOWtmdqxV0F81mdMv2VChxnYfhBD+kiMAHuO7YhNzFLoVwFTbfTGJme6IbdN+Gk31cjW/zdqbj0hOJ+8B6HBzWSmdyTgT6k9rbTWXE8j8KXkaKbrVZE6vKejdI8d3/ct2P4QQ/pECwCe5e1I7QeN2MHaz3Rdz+MOIi73pxM4mX1oDKDc/NZsYpa8ZsDEn87Ko6tyBZiJjKicAZO+uuRzMPzCZ01OsD4ud0PWw7W4IIfwjpwB8Ej22483ozI4vgrEjQC/b7o8ZNCmvaGVxQeoYX1oDODazYx5zYTKBjJyvJqIJOU69avoCx+hx7ZcScDcRUA4BpSaa3H4hRPBJAeCz6PEd/44e1/4lMHYE0csBOK9fWigol3FvdkHqGp4Px/yIbS12fG5JuKZ9LAgPmtgGImyf70j9i+ebu3iPAI6ojpMAesHz18CMil3LQgjRPXPThxiU3J9TO8Ch2wHevdtfCOzqcVtj4O18hvap/Wb7ep/ao9zdqXOJYOS+fiJaHG5o38fkdQ38CKK5juQ7BJpgKqcXCHgqMrPjQNv9EEL4RwqAgMjdl/o8aVzL7MHiN/7KK4WDwt/oeNavBnN/Tu2AED0PLn0hJgKeCnPHISYXxUn/oWZYNMkfgZEwldM0AjVHZrTLY4GFqCJSAAQMP5gcmS+oXwM8y3Zf+qXHIxR8a6S582w6CwVfuvEIovnO1N0w8HwGBh6PvtkxzeTKh5m7YhOVE1oCw+sZmBQ5tkMRldMxJyFEKaQACCh+MDkyV6D/IeDbtvsyWAz+GOTuF/tG9gN/2gPl7kmdSzBwSoBwd+SYjhNM7hAL96X21xqLTOUzLaI7EqbvhhBCBJcUAAHXcn9dXcItzobiRjBCtvszGASaEz6mY55f3y75/ui2Oe38jUCj+tdiTx8DvjVybOe3yOCVGLl7UjMBEpJCnQAAC4RJREFU+PZwpYFwtTs2MTPzse1+CCH8IQVAmeAbEXaHxw/XcK5n5hG2+zNQBCwOq/ChdLTZRXd6wgsRyrUk5hFTSasWMvGN0WO6zjFZBOTvTZzBoJtN5TPFdfWeiZmZF233QwjhDykAygwzqPBAchcwbmLgy7b7MyAM7ZCeETomc59fTRbuT03R4CdKPHpyR+TozlNMHsHI3Zv6McCNpvIZQXRC9JiOP9vuhhDCH4G9IEl0jwgcObrz1cgxnXtEqDgZwB22+9RvBOVC3Zu7P/lHk/fc9yZ8dMeibMEZCcYrJaSZlb8/eQuzuYI5+o2OnzDxDdbXcdhyPYEvmNo+IUTwyRGACsDzkSpEUyezxuUA19ruT38QaA0zpkSP6fi3H+1xI1R+59SlIP5ZCWnuiBxl7kgAMyh/f2I+iI41ka9UBDwRObrzYNv9EEL4QwqACsKNUMXd41/RRfW/IHS/sBAQrMWFmH4Rqe/4sV8PFco9kPwCMS1i8NBBpvhT5KjOWQaLAJW7P/kkUQAeFkXoih7VmbTdDSGEP6QAqFBdD8XHOAV1HhxcEPS7B5h5FTnqoOgRHW/60t4jiOZzyVtBOHGQKe6OvNp5oql1Av55I8JfGJH8R69Fm08ikc4YTUfOdj+EEN6TAqDC8Xw4mVj8yyFW/8vAnrb70xtmvi6a7zqfZiLvR3td98b3ckLqqcGs0MfAw9EjO48gMlME8D8RLqxIvsjAribyDZYLPT5xVGa5zT4IIfwhBUAV6XooPsbRajYIFwX1qACB1iDEh0S+3vmqH+3xg6gpUPJ+Zhww4D8mPBTJdh5tatlgfgTRXCH5KgGfM5FvMBTRAeEjOp621b4Qwj9SAFQhXohQsSO1jwv+b+IAnHvuBjPfEM11fdevowGZB5MnKeCP/V6qlzf+h56J1nYcaOoaBl6IWL49+ToY25nIN1AKuDh8ZOevbLQthPCXFABVjh9CwtXxQ4tQvyQK2iNhqdWFOy1xROYFP1pLP1TTEGX9V2Bg5+IJeD28vnNPOg1ZE/3g+Yjno4n/A9G2JvIN0F+jR3ROs9CuEMJnUgCITfjB5MgC4UTecKtcgJ5cx3dHhmVOo694v049Myj3l8QgnifASyKRzC50CDqN9OMhJPKIvwHQpMElGHTT+egRXdFB/7UQomxIASC2wo1QhT0Su7Dmi8B0gu3+bEBpxXS0X+en+dHYxHyRngT6/y2cmZdHQ5nP03SkTfRh/R2oTQ5JvkvgkSby9Vck0yUPBRKiCkgBIHrFCxHLtScOJMJPQdjNen9ACwuKjquZ3rHW87YYKv9w4lIA/V48iIjWhHNqRzqmfb2RPjyBIblc8h0/i4CIoyfRtOxSv9oTQtghBYDot/RDNQ0xx52hNf2YqI8dkseLDTHoomhX59WmrsDvTfYvsc8Q6Mn+H46ndNHlHZJHdq000T4/iJqcir9JRONM5OuLUnRIeHrn4360JYSwRwoAMSj8ZHJkIcdHMfi/CP7smD6NQOugaEZ4Wscir9viRqjil5MXM/iX/fyTPLPaNXqYmaWO+SEkCir+KkCe3x1AjMvCh3X93Ot2hBB2SQEgSsaPoNal+IEu0/8QsKPf7RNwTxpdZwwzdO69N/xIfGyB8XR/d8SaMD02vetRI23PRzyfjL9KII/v1qCFka93fs3bNoQQtkkBIIzacJpAT2fo//J+R7UZhlaKTncO7fyjycf2dtvUfDj5ZOIyIjT2r2s8Izo9c4+Rthcils8kXva00CIUI9O6wp7lF0IEghQAwjMbjwxooh+B/Vnilok/JKWOiRzs/UqC/Eh8bJ7wVH8KHWK6JDy98woj7c5HpFCTeB7s3bMDwoWuWjoS7V7lF0LYJwWA8EXL/ahLxOIHEdEPvNxxbebGcLHr+3Q4urxshBuhCnunZkPra/r8XfCvI9MyF5OBSyT5nwgX1yb+zsCXS83VnTDRrnRo52te5BZCBIMUAMJ3/AiiBcR3Y4WjCTQHQMybhqCh6MK/RzrnTvX4ccP8SGp4UemH+nrgEgH3hdJdM03cvcALEcrnkw8T88Gl5to6Oc6KTOu6yXheIURgSAEgrOJGKOwRH10g+jpDX0pEE0y3QaB1rsYp0eldfzXx7bsnzCD3yfjRWtPdvT1siUDPhho6D6QvoWCgTVV4LH4HYHbBJmY8HJ3WdZjJnEKIYJECQAQKP4REMZbag7V7BoBZJnMT4SW3qE+ITc8tMZn30/gR1BZDibuYeXovv/VGOJ/d08QpCmZQ4bH4XBBml5prE0IxfFAm4vUFlUIIe6QAEIHFCxHKZ5M7QrkziNR3AK4zszviG8PIXmBq3f6eZB9NTFeK70UPpzgY9HGkEP4CHdbWYqK93F9j/01EPzGRCwA6uzL19Uej1VQ+IUSwSAEgygY/mRyZd90DlaKzmbFPacmgQXRuuLXrZi9XE+TnES90Jq4F82nd/walw2HeiaZmVphoL/944myArzeRC4r2iBzY9ZKRXEKIwJECQJQlng8Hw+Oj8gWeoojmDPZqeCJa57o4JXqIt9cH5J5I7QDWTxB4zFb/yNAA7RE5pOtlE21lH08cocAPlpqHGBeHD8n8ykSfhBDBIwWAqAgfLkRsTCH5OSL36xp0FgEDWp6YgMVuQZ/k5fUBPB9OsT7+fQau7LYPrA4MH9z5lIm2Co/F9mOihSCoEtK8Hjkos4uJ/gghgkcKAFGR+J9IFFriOzPxwWB1NhGP6tffgR6OOHy2qUPy3el4MjkyAn0fgK98+t8U0bdDB3TdbKIdfiq6bUGr10FIbPjBwHOE6zMRE3crCCGCRwoAURX+UxDgaCKcC0aq9z/gW7ty0QvrDF2g153sY4lpyuEHAEQ2/zkx/yh8ULbfjyDuTdtfa4fGQoVXB3pEZCMN3jZ2YPYDE30RQgSLFACi6jCD8GiqoRjjnZn1YUQ0i5kbuvtdAv9k9frsFeNmIuNJX/6JRKEtMQ/41EWCxDeGp2bPMXEbHj+PeCET/zuA3Qb8t8yzogdm7yy1D0KI4JECQAhsWJ0wH059hkjvR+BZTJvdZcDQULgwXJuZ59Xh8OxT0W0J9BcCfW5Ts0wPR5yuo8jAKoY8H05+WPwuAmYM5O8IuC98QOYbpbYvhAgeKQCE6AYvRCirYuOUpj0V8A0GjoJGngmnRaZm7iGCNt4mgwpPx2ZB0a2bVhIkvBJG5is0FVkz+eO/AeF7/f4jQjE8RRYEEqISSQEgRD8wg7CoZlhRF3aGwldA9FRo/8wLXuwY+TEk86HY9UQ4GQAYtDxC0Z1paquRRXnyC6OzwTSvv78fJmcUTe1cbaJtIURwSAEgxCDxQoRMHJ7vMf+zkR0Lrvp/ALYFIV0k+nxi/8xyE7kLT8f2Z+Dp/twmqKCPDk3NP2CiXSFEcJRyj7AQVc3LnT8A0H75t8JTstspRd8AkAi5vDT/VHwPE7nDX8s+UySaQETr+vpdzWqmiTaFEMEiBYAQAUYEDu2fuS+cyg6Bwu/h8OLiM/FjTOROTM2sCEUy40lhMQjoMRRmMMvRQiEqjXyohSgj2aei21IIjxDh6sh+uRtM5OT5cPLbxG4j3nDNQXcKpEYn9+taZaI9IUQwyBEAIcpI7IDcksh+uc8ppdbknoldbuKbOc2EG90vewqIz+vpIEAUxT1LbUcIESxyBECIMrX6MSQbkrFjnZXZO0w90bDwt9gUMJ7Cp78cEN0X3lfWAxCikkgBIESZ4xdQiz3RbuqWxMxz8fFhxkvMPGKzH+vQ6mzEy0cnCyH8JacAhChztBfSJtcjiO+T+cgpZiYAeGaz8wAKY6ITTbUhhLBPCgAhxFZoKrKhfbNTAVy28WfaxcEWuySEEEIIP+UXxvcq/C1WyD8Xfcd2X4QQ5sgRACFEryJTMy+Ews5YMMX5ecRt90cIIYQQPuL3EOXnEqNt90MIYcb/B0SyFk5QfMGjAAAAAElFTkSuQmCC" vertex="1" parent="1">
          <mxGeometry x="1050" y="140" width="60" height="60" as="geometry" />
        </mxCell>
        <mxCell id="rmjXI2Q3mE38yhYSVIC6-38" style="edgeStyle=orthogonalEdgeStyle;rounded=0;orthogonalLoop=1;jettySize=auto;html=1;" edge="1" parent="1" source="rmjXI2Q3mE38yhYSVIC6-37" target="rmjXI2Q3mE38yhYSVIC6-35">
          <mxGeometry relative="1" as="geometry">
            <Array as="points">
              <mxPoint x="1070" y="271" />
              <mxPoint x="1090" y="271" />
            </Array>
          </mxGeometry>
        </mxCell>
        <mxCell id="rmjXI2Q3mE38yhYSVIC6-48" value="Fallout Report" style="edgeStyle=orthogonalEdgeStyle;rounded=0;orthogonalLoop=1;jettySize=auto;html=1;" edge="1" parent="1" source="rmjXI2Q3mE38yhYSVIC6-40" target="rmjXI2Q3mE38yhYSVIC6-43">
          <mxGeometry relative="1" as="geometry">
            <Array as="points">
              <mxPoint x="1020" y="630" />
              <mxPoint x="1004" y="630" />
            </Array>
          </mxGeometry>
        </mxCell>
        <mxCell id="rmjXI2Q3mE38yhYSVIC6-53" style="edgeStyle=orthogonalEdgeStyle;rounded=0;orthogonalLoop=1;jettySize=auto;html=1;" edge="1" parent="1" source="rmjXI2Q3mE38yhYSVIC6-40" target="rmjXI2Q3mE38yhYSVIC6-45">
          <mxGeometry relative="1" as="geometry" />
        </mxCell>
        <mxCell id="rmjXI2Q3mE38yhYSVIC6-40" value="Fallout Detection" style="shape=process;whiteSpace=wrap;html=1;backgroundOutline=1;fillColor=#ffe6cc;strokeColor=#d79b00;" vertex="1" parent="1">
          <mxGeometry x="958" y="540" width="120" height="60" as="geometry" />
        </mxCell>
        <mxCell id="rmjXI2Q3mE38yhYSVIC6-63" value="Fallout Lookup" style="edgeStyle=orthogonalEdgeStyle;rounded=0;orthogonalLoop=1;jettySize=auto;html=1;entryX=0.5;entryY=1;entryDx=0;entryDy=0;" edge="1" parent="1" source="rmjXI2Q3mE38yhYSVIC6-43" target="rmjXI2Q3mE38yhYSVIC6-24">
          <mxGeometry x="-0.1948" y="2" relative="1" as="geometry">
            <mxPoint x="988" y="610" as="targetPoint" />
            <Array as="points">
              <mxPoint x="1020" y="712" />
              <mxPoint x="1020" y="710" />
              <mxPoint x="715" y="710" />
            </Array>
            <mxPoint as="offset" />
          </mxGeometry>
        </mxCell>
        <mxCell id="rmjXI2Q3mE38yhYSVIC6-43" value="Fallout Store" style="image;aspect=fixed;html=1;points=[];align=center;fontSize=12;image=img/lib/azure2/databases/Azure_Database_PostgreSQL_Server.svg;verticalAlign=middle;horizontal=1;" vertex="1" parent="1">
          <mxGeometry x="982" y="670" width="48" height="64" as="geometry" />
        </mxCell>
        <mxCell id="rmjXI2Q3mE38yhYSVIC6-55" style="edgeStyle=orthogonalEdgeStyle;rounded=0;orthogonalLoop=1;jettySize=auto;html=1;entryX=1;entryY=0.5;entryDx=0;entryDy=0;entryPerimeter=0;" edge="1" parent="1" source="rmjXI2Q3mE38yhYSVIC6-45" target="rmjXI2Q3mE38yhYSVIC6-54">
          <mxGeometry relative="1" as="geometry">
            <Array as="points">
              <mxPoint x="1440" y="159" />
            </Array>
          </mxGeometry>
        </mxCell>
        <mxCell id="rmjXI2Q3mE38yhYSVIC6-45" value="AWS Step Functions" style="sketch=0;outlineConnect=0;fontColor=#232F3E;gradientColor=none;strokeColor=#ffffff;fillColor=#232F3E;dashed=0;verticalLabelPosition=middle;verticalAlign=bottom;align=center;html=1;whiteSpace=wrap;fontSize=10;fontStyle=1;spacing=3;shape=mxgraph.aws4.productIcon;prIcon=mxgraph.aws4.step_functions;" vertex="1" parent="1">
          <mxGeometry x="1410" y="264" width="80" height="110" as="geometry" />
        </mxCell>
        <mxCell id="rmjXI2Q3mE38yhYSVIC6-57" style="edgeStyle=orthogonalEdgeStyle;rounded=0;orthogonalLoop=1;jettySize=auto;html=1;" edge="1" parent="1" source="rmjXI2Q3mE38yhYSVIC6-54" target="rmjXI2Q3mE38yhYSVIC6-56">
          <mxGeometry relative="1" as="geometry" />
        </mxCell>
        <mxCell id="rmjXI2Q3mE38yhYSVIC6-54" value="Fallout Remediation" style="sketch=0;points=[[0,0,0],[0.25,0,0],[0.5,0,0],[0.75,0,0],[1,0,0],[0,1,0],[0.25,1,0],[0.5,1,0],[0.75,1,0],[1,1,0],[0,0.25,0],[0,0.5,0],[0,0.75,0],[1,0.25,0],[1,0.5,0],[1,0.75,0]];outlineConnect=0;fontColor=#232F3E;gradientColor=#945DF2;gradientDirection=north;fillColor=#5A30B5;strokeColor=#ffffff;dashed=0;verticalLabelPosition=bottom;verticalAlign=top;align=center;html=1;fontSize=12;fontStyle=0;aspect=fixed;shape=mxgraph.aws4.resourceIcon;resIcon=mxgraph.aws4.managed_streaming_for_kafka;" vertex="1" parent="1">
          <mxGeometry x="1241" y="128" width="62" height="62" as="geometry" />
        </mxCell>
        <mxCell id="rmjXI2Q3mE38yhYSVIC6-64" style="edgeStyle=orthogonalEdgeStyle;rounded=0;orthogonalLoop=1;jettySize=auto;html=1;jumpStyle=arc;" edge="1" parent="1" source="rmjXI2Q3mE38yhYSVIC6-56">
          <mxGeometry relative="1" as="geometry">
            <mxPoint x="1030" y="710" as="targetPoint" />
            <Array as="points">
              <mxPoint x="1272" y="710" />
              <mxPoint x="1042" y="710" />
            </Array>
          </mxGeometry>
        </mxCell>
        <mxCell id="rmjXI2Q3mE38yhYSVIC6-56" value="Fallout Tracking" style="shape=process;whiteSpace=wrap;html=1;backgroundOutline=1;fillColor=#d5e8d4;strokeColor=#82b366;" vertex="1" parent="1">
          <mxGeometry x="1212" y="310" width="120" height="60" as="geometry" />
        </mxCell>
      </root>
    </mxGraphModel>
  </diagram>
</mxfile>
